<?xml version="1.0" encoding="UTF-8"?>
<!DOCTYPE svg PUBLIC "-//W3C//DTD SVG 1.1//EN" "http://www.w3.org/Graphics/SVG/1.1/DTD/svg11.dtd">
<svg xmlns="http://www.w3.org/2000/svg" version="1.1" width="466px" height="698px" style="shape-rendering:geometricPrecision; text-rendering:geometricPrecision; image-rendering:optimizeQuality; fill-rule:evenodd; clip-rule:evenodd" xmlns:xlink="http://www.w3.org/1999/xlink">
<g><path style="opacity:0.745" fill="#686772" d="M 227.5,-0.5 C 230.833,-0.5 234.167,-0.5 237.5,-0.5C 245.167,0.166667 252.833,0.833333 260.5,1.5C 242.833,1.5 225.167,1.5 207.5,1.5C 214.167,0.833333 220.833,0.166667 227.5,-0.5 Z"/></g>
<g><path style="opacity:0.071" fill="#3d3d48" d="M 260.5,1.5 C 269.766,1.39167 278.766,2.39167 287.5,4.5C 278.323,3.81717 269.323,2.81717 260.5,1.5 Z"/></g>
<g><path style="opacity:0.722" fill="#50555d" d="M 200.5,1.5 C 195.402,2.95731 190.069,3.62397 184.5,3.5C 189.616,2.19371 194.949,1.52705 200.5,1.5 Z"/></g>
<g><path style="opacity:1" fill="#e2e8ec" d="M 200.5,1.5 C 202.833,1.5 205.167,1.5 207.5,1.5C 225.167,1.5 242.833,1.5 260.5,1.5C 269.323,2.81717 278.323,3.81717 287.5,4.5C 290.909,5.90341 294.575,6.57007 298.5,6.5C 299.791,6.26269 300.791,6.59603 301.5,7.5C 301.719,8.67504 301.386,9.67504 300.5,10.5C 255.246,2.83565 209.913,2.50232 164.5,9.5C 165.591,7.46578 167.257,6.13244 169.5,5.5C 174.414,4.29257 179.414,3.6259 184.5,3.5C 190.069,3.62397 195.402,2.95731 200.5,1.5 Z"/></g>
<g><path style="opacity:0.129" fill="#403f43" d="M 287.5,4.5 C 291.425,4.42993 295.091,5.09659 298.5,6.5C 294.575,6.57007 290.909,5.90341 287.5,4.5 Z"/></g>
<g><path style="opacity:0.141" fill="#11141f" d="M 169.5,5.5 C 167.257,6.13244 165.591,7.46578 164.5,9.5C 164.167,9.5 163.833,9.5 163.5,9.5C 163.759,5.93186 165.759,4.59853 169.5,5.5 Z"/></g>
<g><path style="opacity:0.835" fill="#354052" d="M 163.5,9.5 C 163.423,10.7498 162.756,11.5831 161.5,12C 157.582,13.1564 153.582,13.6564 149.5,13.5C 154.081,12.1714 158.747,10.8381 163.5,9.5 Z"/></g>
<g><path style="opacity:1" fill="#698598" d="M 301.5,7.5 C 302.338,7.84171 302.672,8.50838 302.5,9.5C 303.343,11.1733 304.676,12.34 306.5,13C 325.605,15.5255 343.939,20.6922 361.5,28.5C 371.307,38.1389 379.807,48.8055 387,60.5C 393.161,69.7964 394.827,79.7964 392,90.5C 387.932,96.0703 383.098,100.737 377.5,104.5C 280.207,114.953 182.874,115.12 85.5,105C 73.4398,103.394 61.4398,101.394 49.5,99C 44.3197,97.6229 39.3197,95.7896 34.5,93.5C 33.2031,91.0268 33.2031,88.6934 34.5,86.5C 37.4731,85.9036 40.3065,84.237 43,81.5C 48.2608,71.4926 55.0942,62.6593 63.5,55C 72.2765,47.5573 81.6098,40.8906 91.5,35C 90.552,34.5172 89.552,34.3505 88.5,34.5C 88.8417,33.6618 89.5084,33.3284 90.5,33.5C 103.363,27.8836 116.363,22.8836 129.5,18.5C 136.375,17.3289 143.042,15.6623 149.5,13.5C 153.582,13.6564 157.582,13.1564 161.5,12C 162.756,11.5831 163.423,10.7498 163.5,9.5C 163.833,9.5 164.167,9.5 164.5,9.5C 209.913,2.50232 255.246,2.83565 300.5,10.5C 301.386,9.67504 301.719,8.67504 301.5,7.5 Z"/></g>
<g><path style="opacity:0.024" fill="#181e2e" d="M 149.5,13.5 C 143.042,15.6623 136.375,17.3289 129.5,18.5C 135.805,15.8337 142.472,14.167 149.5,13.5 Z"/></g>
<g><path style="opacity:0.08" fill="#121726" d="M 129.5,18.5 C 116.363,22.8836 103.363,27.8836 90.5,33.5C 102.441,26.0408 115.441,21.0408 129.5,18.5 Z"/></g>
<g><path style="opacity:0.118" fill="#1b1e28" d="M 88.5,34.5 C 86.8185,36.0075 84.8185,37.0075 82.5,37.5C 83.911,35.461 85.911,34.461 88.5,34.5 Z"/></g>
<g><path style="opacity:1" fill="#070516" d="M 209.5,7.5 C 225.503,7.33341 241.503,7.50007 257.5,8C 271.658,9.43045 285.324,12.7638 298.5,18C 305.077,23.2528 305.077,28.5862 298.5,34C 287.378,39.0393 275.711,42.0393 263.5,43C 245.19,44.4801 226.857,44.8134 208.5,44C 193.797,43.4608 179.797,40.1274 166.5,34C 160.694,27.6369 161.36,21.9702 168.5,17C 172.723,15.0558 177.056,13.3892 181.5,12C 190.948,10.3475 200.282,8.84752 209.5,7.5 Z"/></g>
<g><path style="opacity:1" fill="#384e67" d="M 209.5,15.5 C 236.504,13.8847 263.171,16.0514 289.5,22C 292.112,22.6395 294.446,23.8062 296.5,25.5C 292.409,28.7069 287.742,30.8735 282.5,32C 247.43,38.2559 212.43,37.9226 177.5,31C 174.497,29.8338 171.83,28.1672 169.5,26C 172.942,22.9457 176.942,20.9457 181.5,20C 190.95,18.3238 200.283,16.8238 209.5,15.5 Z"/></g>
<g><path style="opacity:0.122" fill="#171923" d="M 82.5,37.5 C 74.5368,42.8202 66.5368,48.1535 58.5,53.5C 58.4142,52.5041 58.7476,51.6708 59.5,51C 63.3438,48.578 67.0105,45.9113 70.5,43C 74.4131,40.8752 78.4131,39.0418 82.5,37.5 Z"/></g>
<g><path style="opacity:1" fill="#fafbfc" d="M 139.5,39.5 C 145.842,39.3338 152.175,39.5005 158.5,40C 174.776,43.2011 177.776,51.2011 167.5,64C 151.917,75.3845 134.584,79.3845 115.5,76C 100.712,69.2345 99.7118,60.5678 112.5,50C 120.876,44.6023 129.876,41.1023 139.5,39.5 Z"/></g>
<g><path style="opacity:1" fill="#426076" d="M 361.5,28.5 C 388.999,38.3435 411.332,55.0102 428.5,78.5C 429.562,81.5156 430.729,84.5156 432,87.5C 432.743,89.4406 432.576,91.2739 431.5,93C 414.114,99.6797 396.114,103.513 377.5,104.5C 383.098,100.737 387.932,96.0703 392,90.5C 394.827,79.7964 393.161,69.7964 387,60.5C 379.807,48.8055 371.307,38.1389 361.5,28.5 Z"/></g>
<g><path style="opacity:0.012" fill="#0d1120" d="M 302.5,9.5 C 329.029,13.9654 354.362,22.1321 378.5,34C 395.231,42.9609 410.065,54.4609 423,68.5C 425.112,71.7271 426.945,75.0604 428.5,78.5C 411.332,55.0102 388.999,38.3435 361.5,28.5C 343.939,20.6922 325.605,15.5255 306.5,13C 304.676,12.34 303.343,11.1733 302.5,9.5 Z"/></g>
<g><path style="opacity:0.341" fill="#282a36" d="M 57.5,54.5 C 56.8333,55.8333 55.8333,56.8333 54.5,57.5C 54.5,55.5 55.5,54.5 57.5,54.5 Z"/></g>
<g><path style="opacity:0.137" fill="#1f1f27" d="M 53.5,58.5 C 52.7377,60.2624 51.4044,61.2624 49.5,61.5C 49.6941,59.0882 51.0274,58.0882 53.5,58.5 Z"/></g>
<g><path style="opacity:0.094" fill="#1f232b" d="M 49.5,61.5 C 48.9202,63.7488 47.5869,65.4154 45.5,66.5C 45.3692,63.6333 46.7026,61.9666 49.5,61.5 Z"/></g>
<g><path style="opacity:0.145" fill="#1a1e28" d="M 45.5,66.5 C 44.4884,67.8717 43.4884,69.205 42.5,70.5C 42.0882,68.0274 43.0882,66.6941 45.5,66.5 Z"/></g>
<g><path style="opacity:1" fill="#e9edf0" d="M 88.5,34.5 C 89.552,34.3505 90.552,34.5172 91.5,35C 81.6098,40.8906 72.2765,47.5573 63.5,55C 55.0942,62.6593 48.2608,71.4926 43,81.5C 40.3065,84.237 37.4731,85.9036 34.5,86.5C 36.1146,80.6042 38.7812,75.2708 42.5,70.5C 43.4884,69.205 44.4884,67.8717 45.5,66.5C 47.5869,65.4154 48.9202,63.7488 49.5,61.5C 51.4044,61.2624 52.7377,60.2624 53.5,58.5C 53.5,57.8333 53.8333,57.5 54.5,57.5C 55.8333,56.8333 56.8333,55.8333 57.5,54.5C 57.5,53.8333 57.8333,53.5 58.5,53.5C 66.5368,48.1535 74.5368,42.8202 82.5,37.5C 84.8185,37.0075 86.8185,36.0075 88.5,34.5 Z"/></g>
<g><path style="opacity:0.995" fill="#647c8e" d="M 36.5,105.5 C 32.753,105.608 29.0863,105.108 25.5,104C 19.8283,101.497 14.1616,98.9972 8.5,96.5C 6.23833,97.4669 3.905,98.1336 1.5,98.5C 1.5,98.1667 1.5,97.8333 1.5,97.5C 2.03118,95.3763 3.36451,93.8763 5.5,93C 11.3686,89.0902 17.7019,87.5902 24.5,88.5C 23.123,91.5766 23.2896,94.5766 25,97.5C 28.4636,100.805 32.297,103.472 36.5,105.5 Z"/></g>
<g><path style="opacity:1" fill="#698699" d="M 1.5,100.5 C 7.07998,104.122 13.08,106.956 19.5,109C 55.0692,116.946 91.0692,121.946 127.5,124C 227.903,130.9 327.903,127.4 427.5,113.5C 427.679,124.19 427.345,134.857 426.5,145.5C 376.847,153.435 326.847,157.935 276.5,159C 198.446,161.934 120.779,157.934 43.5,147C 33.1673,144.767 22.834,142.6 12.5,140.5C 8.80753,138.562 5.30753,136.229 2,133.5C 1.50015,122.505 1.33349,111.505 1.5,100.5 Z"/></g>
<g><path style="opacity:1" fill="#436077" d="M 464.5,100.5 C 464.667,111.172 464.5,121.839 464,132.5C 462.127,134.709 459.96,136.542 457.5,138C 447.372,141.433 437.039,143.933 426.5,145.5C 427.345,134.857 427.679,124.19 427.5,113.5C 436.075,111.188 444.742,108.854 453.5,106.5C 456.904,104.133 460.571,102.133 464.5,100.5 Z"/></g>
<g><path style="opacity:1" fill="#080615" d="M 42.5,70.5 C 38.7812,75.2708 36.1146,80.6042 34.5,86.5C 33.2031,88.6934 33.2031,91.0268 34.5,93.5C 39.3197,95.7896 44.3197,97.6229 49.5,99C 61.4398,101.394 73.4398,103.394 85.5,105C 182.874,115.12 280.207,114.953 377.5,104.5C 396.114,103.513 414.114,99.6797 431.5,93C 432.576,91.2739 432.743,89.4406 432,87.5C 430.729,84.5156 429.562,81.5156 428.5,78.5C 430.601,81.1789 432.601,84.0123 434.5,87C 446.013,84.9644 456.346,87.7978 465.5,95.5C 465.5,108.167 465.5,120.833 465.5,133.5C 458.947,139.105 451.28,142.605 442.5,144C 441.572,144.388 440.905,145.055 440.5,146C 438.639,159.323 436.639,172.49 434.5,185.5C 435.586,174.489 436.42,163.489 437,152.5C 383.988,162.044 330.488,167.21 276.5,168C 193.275,171.616 110.609,166.783 28.5,153.5C 29.1646,159.477 29.498,165.477 29.5,171.5C 28.7513,167.946 27.918,164.28 27,160.5C 26.2829,156.955 26.4496,153.455 27.5,150C 27,148.5 26.5,147 26,145.5C 21.4335,143.744 16.9335,142.077 12.5,140.5C 22.834,142.6 33.1673,144.767 43.5,147C 120.779,157.934 198.446,161.934 276.5,159C 326.847,157.935 376.847,153.435 426.5,145.5C 437.039,143.933 447.372,141.433 457.5,138C 459.96,136.542 462.127,134.709 464,132.5C 464.5,121.839 464.667,111.172 464.5,100.5C 463.498,94.9926 460.164,91.4926 454.5,90C 450.297,88.4309 445.964,87.5976 441.5,87.5C 442.722,93.1656 441.055,97.6656 436.5,101C 432.944,102.608 429.611,104.441 426.5,106.5C 397.85,112.7 368.85,116.533 339.5,118C 259.446,123.222 179.446,122.555 99.5,116C 78.171,114.223 57.171,110.723 36.5,105.5C 32.297,103.472 28.4636,100.805 25,97.5C 23.2896,94.5766 23.123,91.5766 24.5,88.5C 17.7019,87.5902 11.3686,89.0902 5.5,93C 3.36451,93.8763 2.03118,95.3763 1.5,97.5C 0.548855,98.9187 0.215521,100.585 0.5,102.5C 0.166667,102.5 -0.166667,102.5 -0.5,102.5C -0.5,100.167 -0.5,97.8333 -0.5,95.5C 8.91153,88.2993 19.2449,85.1327 30.5,86C 34.0303,81.4182 37.1969,76.5848 40,71.5C 40.6708,70.7476 41.5041,70.4142 42.5,70.5 Z"/></g>
<g><path style="opacity:1" fill="#526e83" d="M 464.5,100.5 C 460.571,102.133 456.904,104.133 453.5,106.5C 453.423,105.25 452.756,104.417 451.5,104C 449.5,103.833 447.5,103.667 445.5,103.5C 439.139,104.341 432.805,105.341 426.5,106.5C 429.611,104.441 432.944,102.608 436.5,101C 441.055,97.6656 442.722,93.1656 441.5,87.5C 445.964,87.5976 450.297,88.4309 454.5,90C 460.164,91.4926 463.498,94.9926 464.5,100.5 Z"/></g>
<g><path style="opacity:0.214" fill="#1f2634" d="M 1.5,97.5 C 1.5,97.8333 1.5,98.1667 1.5,98.5C 1.5,99.1667 1.5,99.8333 1.5,100.5C 1.33349,111.505 1.50015,122.505 2,133.5C 5.30753,136.229 8.80753,138.562 12.5,140.5C 6.72442,140.035 2.39109,137.368 -0.5,132.5C -0.5,131.167 -0.5,129.833 -0.5,128.5C 0.833333,125.833 0.833333,123.167 -0.5,120.5C -0.5,120.167 -0.5,119.833 -0.5,119.5C 0.833333,115.5 0.833333,111.5 -0.5,107.5C -0.5,106.833 -0.5,106.167 -0.5,105.5C 0.403972,104.791 0.737305,103.791 0.5,102.5C 0.215521,100.585 0.548855,98.9187 1.5,97.5 Z"/></g>
<g><path style="opacity:1" fill="#f0f2f3" d="M 36.5,105.5 C 57.171,110.723 78.171,114.223 99.5,116C 179.446,122.555 259.446,123.222 339.5,118C 368.85,116.533 397.85,112.7 426.5,106.5C 432.805,105.341 439.139,104.341 445.5,103.5C 447.5,103.667 449.5,103.833 451.5,104C 452.756,104.417 453.423,105.25 453.5,106.5C 444.742,108.854 436.075,111.188 427.5,113.5C 327.903,127.4 227.903,130.9 127.5,124C 91.0692,121.946 55.0692,116.946 19.5,109C 13.08,106.956 7.07998,104.122 1.5,100.5C 1.5,99.8333 1.5,99.1667 1.5,98.5C 3.905,98.1336 6.23833,97.4669 8.5,96.5C 14.1616,98.9972 19.8283,101.497 25.5,104C 29.0863,105.108 32.753,105.608 36.5,105.5 Z"/></g>
<g><path style="opacity:1" fill="#405f76" d="M 434.5,185.5 C 434.295,193.217 433.628,200.884 432.5,208.5C 430.922,213.583 430.255,218.916 430.5,224.5C 430.5,225.5 430.5,226.5 430.5,227.5C 429.064,233.947 428.397,240.614 428.5,247.5C 426.855,252.234 426.189,257.234 426.5,262.5C 425.054,268.274 424.388,274.274 424.5,280.5C 424.36,287.901 423.693,295.235 422.5,302.5C 420.822,307.568 420.156,312.902 420.5,318.5C 420.5,318.833 420.5,319.167 420.5,319.5C 419.054,325.274 418.388,331.274 418.5,337.5C 418.605,341.548 418.272,345.548 417.5,349.5C 416.513,354.32 415.847,359.32 415.5,364.5C 415.5,364.833 415.5,365.167 415.5,365.5C 414.004,371.605 413.337,377.938 413.5,384.5C 413.5,385.5 413.5,386.5 413.5,387.5C 411.922,392.583 411.255,397.916 411.5,403.5C 411.677,407.234 411.344,410.901 410.5,414.5C 407.891,423.505 406.891,432.838 407.5,442.5C 407.5,442.833 407.5,443.167 407.5,443.5C 404.322,464.264 401.989,485.264 400.5,506.5C 398.663,531.73 395.996,556.73 392.5,581.5C 391.121,587.617 390.454,593.95 390.5,600.5C 388.919,609.294 387.919,618.294 387.5,627.5C 386.991,638.586 385.825,649.586 384,660.5C 379.385,668.884 372.551,674.551 363.5,677.5C 360.982,678.264 358.649,679.264 356.5,680.5C 353.854,682.253 350.854,683.253 347.5,683.5C 344.402,683.756 341.402,684.422 338.5,685.5C 347.722,675.717 353.222,664.051 355,650.5C 364.995,553.206 374.662,455.873 384,358.5C 388.268,320.023 393.601,281.69 400,243.5C 400.318,241.939 401.151,240.772 402.5,240C 400.523,237.957 399.523,235.457 399.5,232.5C 402.232,235.975 403.899,239.975 404.5,244.5C 408.158,246.324 409.825,245.157 409.5,241C 407.857,233.879 404.524,227.712 399.5,222.5C 401.086,223.413 402.586,223.413 404,222.5C 407.498,206.508 410.998,190.508 414.5,174.5C 400.944,176.945 387.277,178.612 373.5,179.5C 282.189,187.313 190.856,187.48 99.5,180C 76.7666,177.234 54.0999,174.067 31.5,170.5C 30.7209,175.994 30.7209,181.661 31.5,187.5C 30.9089,184.301 29.9089,181.134 28.5,178C 29.4231,175.959 29.7564,173.792 29.5,171.5C 29.498,165.477 29.1646,159.477 28.5,153.5C 110.609,166.783 193.275,171.616 276.5,168C 330.488,167.21 383.988,162.044 437,152.5C 436.42,163.489 435.586,174.489 434.5,185.5 Z"/></g>
<g><path style="opacity:1" fill="#698599" d="M 31.5,170.5 C 54.0999,174.067 76.7666,177.234 99.5,180C 190.856,187.48 282.189,187.313 373.5,179.5C 372.539,195.168 371.539,210.835 370.5,226.5C 363.039,234.755 358.206,244.421 356,255.5C 353.835,277.481 352.002,299.481 350.5,321.5C 343.789,321.287 337.123,321.62 330.5,322.5C 340.168,306.672 338.168,292.506 324.5,280C 308.051,270.531 293.884,273.031 282,287.5C 272.139,309.927 278.639,325.427 301.5,334C 305.167,334.667 308.833,334.667 312.5,334C 315.022,332.659 317.689,331.826 320.5,331.5C 318.498,340.516 321.831,346.182 330.5,348.5C 331.091,349.151 331.757,349.818 332.5,350.5C 337.456,351.494 342.456,351.827 347.5,351.5C 340.751,430.151 334.251,508.817 328,587.5C 325.563,599.903 319.063,609.403 308.5,616C 304.928,617.405 301.261,617.738 297.5,617C 295.252,615.086 292.752,613.586 290,612.5C 286.832,615.424 287.332,617.924 291.5,620C 301.062,625.014 310.062,624.014 318.5,617C 327.585,607.663 333.085,596.496 335,583.5C 340.685,505.383 347.185,427.383 354.5,349.5C 356.947,349.385 358.947,348.385 360.5,346.5C 358.424,376.141 356.591,405.808 355,435.5C 351.021,486.274 346.021,536.941 340,587.5C 336.439,607.973 331.105,627.973 324,647.5C 317.477,668.268 304.644,683.602 285.5,693.5C 281.336,693.956 277.336,694.622 273.5,695.5C 254.177,696.267 234.843,696.601 215.5,696.5C 203.764,696.77 192.097,696.103 180.5,694.5C 170.371,692.608 160.038,691.275 149.5,690.5C 145.575,690.57 141.909,689.903 138.5,688.5C 134.31,685.946 129.643,684.946 124.5,685.5C 121.619,683.32 118.286,682.32 114.5,682.5C 106.368,679.767 98.7012,675.934 91.5,671C 87.7265,667.282 84.5599,663.116 82,658.5C 77.6918,613.416 72.8585,568.416 67.5,523.5C 66.0154,505.966 64.0154,488.633 61.5,471.5C 61.65,464.279 60.9833,457.279 59.5,450.5C 58.7694,435.918 57.1028,421.585 54.5,407.5C 51.9896,388.238 49.9896,368.905 48.5,349.5C 49.2679,350.263 49.7679,351.263 50,352.5C 50.9533,350.545 52.2866,348.878 54,347.5C 54.6667,341.167 54.6667,334.833 54,328.5C 48.6685,277.846 43.3351,227.179 38,176.5C 35.9373,174.266 33.7706,172.266 31.5,170.5 Z"/></g>
<g><path style="opacity:1" fill="#516f84" d="M 399.5,222.5 C 388.838,217.411 379.171,218.745 370.5,226.5C 371.539,210.835 372.539,195.168 373.5,179.5C 387.277,178.612 400.944,176.945 414.5,174.5C 410.998,190.508 407.498,206.508 404,222.5C 402.586,223.413 401.086,223.413 399.5,222.5 Z"/></g>
<g><path style="opacity:0.455" fill="#172235" d="M 432.5,208.5 C 432.332,214.034 431.665,219.367 430.5,224.5C 430.255,218.916 430.922,213.583 432.5,208.5 Z"/></g>
<g><path style="opacity:0.005" fill="#090d1c" d="M 430.5,227.5 C 430.479,234.374 429.813,241.041 428.5,247.5C 428.397,240.614 429.064,233.947 430.5,227.5 Z"/></g>
<g><path style="opacity:0.999" fill="#e8e8e8" d="M 31.5,170.5 C 33.7706,172.266 35.9373,174.266 38,176.5C 43.3351,227.179 48.6685,277.846 54,328.5C 54.6667,334.833 54.6667,341.167 54,347.5C 52.2866,348.878 50.9533,350.545 50,352.5C 49.7679,351.263 49.2679,350.263 48.5,349.5C 48.5,348.167 48.5,346.833 48.5,345.5C 47.403,329.963 45.7363,314.63 43.5,299.5C 43.5,299.167 43.5,298.833 43.5,298.5C 43.6123,292.274 42.9457,286.274 41.5,280.5C 40.1208,274.383 39.4541,268.05 39.5,261.5C 39.1435,249.581 37.8101,237.915 35.5,226.5C 33.7281,213.552 32.3948,200.552 31.5,187.5C 30.7209,181.661 30.7209,175.994 31.5,170.5 Z"/></g>
<g><path style="opacity:0.247" fill="#4f4d58" d="M 35.5,226.5 C 37.8101,237.915 39.1435,249.581 39.5,261.5C 37.5965,250.039 36.2631,238.372 35.5,226.5 Z"/></g>
<g><path style="opacity:1" fill="#090917" d="M 114.5,321.5 C 114.167,322.167 113.833,322.833 113.5,323.5C 111.716,323.893 110.05,324.559 108.5,325.5C 106.591,302.846 104.757,280.179 103,257.5C 100.509,245.004 94.3425,234.837 84.5,227C 71.1015,224.013 63.2682,229.513 61,243.5C 59.3333,246.167 57.6667,246.167 56,243.5C 56.424,229.909 63.2574,221.576 76.5,218.5C 90.4497,221.608 99.9497,229.942 105,243.5C 106.937,247.646 108.271,251.979 109,256.5C 111.225,278.138 113.058,299.804 114.5,321.5 Z"/></g>
<g><path style="opacity:1" fill="#688397" d="M 367.5,241.5 C 368.165,244.314 368.498,247.314 368.5,250.5C 366.329,277.544 364.329,304.544 362.5,331.5C 360.167,329.833 358.167,327.833 356.5,325.5C 358.423,302.514 360.256,279.514 362,256.5C 363.287,251.267 365.12,246.267 367.5,241.5 Z"/></g>
<g><path style="opacity:1" fill="#090816" d="M 399.5,222.5 C 404.524,227.712 407.857,233.879 409.5,241C 409.825,245.157 408.158,246.324 404.5,244.5C 403.899,239.975 402.232,235.975 399.5,232.5C 395.606,225.958 389.939,223.792 382.5,226C 375.952,229.714 370.952,234.88 367.5,241.5C 365.12,246.267 363.287,251.267 362,256.5C 360.256,279.514 358.423,302.514 356.5,325.5C 354.25,324.87 352.25,323.87 350.5,322.5C 350.5,322.167 350.5,321.833 350.5,321.5C 352.002,299.481 353.835,277.481 356,255.5C 358.206,244.421 363.039,234.755 370.5,226.5C 379.171,218.745 388.838,217.411 399.5,222.5 Z"/></g>
<g><path style="opacity:0.482" fill="#192535" d="M 428.5,247.5 C 428.259,252.694 427.593,257.694 426.5,262.5C 426.189,257.234 426.855,252.234 428.5,247.5 Z"/></g>
<g><path style="opacity:0.024" fill="#141b2d" d="M 426.5,262.5 C 426.477,268.712 425.81,274.712 424.5,280.5C 424.388,274.274 425.054,268.274 426.5,262.5 Z"/></g>
<g><path style="opacity:1" fill="#070212" d="M 330.5,322.5 C 328.833,324.5 327.167,326.5 325.5,328.5C 323.566,329.11 321.899,330.11 320.5,331.5C 317.689,331.826 315.022,332.659 312.5,334C 308.833,334.667 305.167,334.667 301.5,334C 278.639,325.427 272.139,309.927 282,287.5C 293.884,273.031 308.051,270.531 324.5,280C 338.168,292.506 340.168,306.672 330.5,322.5 Z"/></g>
<g><path style="opacity:1" fill="#070212" d="M 145.5,331.5 C 141.833,328.833 138.167,326.167 134.5,323.5C 134.672,322.508 134.338,321.842 133.5,321.5C 123.432,300.202 129.098,284.702 150.5,275C 175.043,272.883 187.543,284.049 188,308.5C 181.363,330.233 167.197,337.9 145.5,331.5 Z"/></g>
<g><path style="opacity:1" fill="#efedee" d="M 143.5,285.5 C 149.059,284.231 152.892,286.231 155,291.5C 154.859,298.966 151.026,302.133 143.5,301C 138.221,295.836 138.221,290.669 143.5,285.5 Z"/></g>
<g><path style="opacity:1" fill="#f5f5f6" d="M 292.5,285.5 C 300.709,284.872 304.209,288.539 303,296.5C 300.774,300.861 297.274,302.361 292.5,301C 290.667,300.5 289.5,299.333 289,297.5C 287.593,292.643 288.76,288.643 292.5,285.5 Z"/></g>
<g><path style="opacity:0.475" fill="#58555e" d="M 41.5,280.5 C 42.9457,286.274 43.6123,292.274 43.5,298.5C 42.0543,292.726 41.3877,286.726 41.5,280.5 Z"/></g>
<g><path style="opacity:1" fill="#d1d1d8" d="M 152.5,305.5 C 155.14,306.794 155.14,308.127 152.5,309.5C 151.374,308.192 151.374,306.858 152.5,305.5 Z"/></g>
<g><path style="opacity:1" fill="#aeb0b6" d="M 300.5,305.5 C 301.995,305.415 302.995,306.081 303.5,307.5C 302.68,309.111 301.346,309.778 299.5,309.5C 299.433,308.041 299.766,306.708 300.5,305.5 Z"/></g>
<g><path style="opacity:0.612" fill="#1c253a" d="M 422.5,302.5 C 422.218,308.021 421.551,313.354 420.5,318.5C 420.156,312.902 420.822,307.568 422.5,302.5 Z"/></g>
<g><path style="opacity:0.114" fill="#3b3d45" d="M 43.5,299.5 C 45.7363,314.63 47.403,329.963 48.5,345.5C 45.9228,330.407 44.2562,315.074 43.5,299.5 Z"/></g>
<g><path style="opacity:1" fill="#b2688e" d="M 114.5,321.5 C 120.833,321.5 127.167,321.5 133.5,321.5C 134.338,321.842 134.672,322.508 134.5,323.5C 127.551,322.285 120.551,322.285 113.5,323.5C 113.833,322.833 114.167,322.167 114.5,321.5 Z"/></g>
<g><path style="opacity:1" fill="#c0708a" d="M 350.5,321.5 C 350.5,321.833 350.5,322.167 350.5,322.5C 345.156,322.334 339.823,322.501 334.5,323C 331.354,324.657 328.354,326.491 325.5,328.5C 327.167,326.5 328.833,324.5 330.5,322.5C 337.123,321.62 343.789,321.287 350.5,321.5 Z"/></g>
<g><path style="opacity:1" fill="#090414" d="M 241.5,352.5 C 241.5,351.833 241.5,351.167 241.5,350.5C 242.987,347.788 242.321,345.621 239.5,344C 233.956,341.58 228.789,342.08 224,345.5C 221.598,348.442 222.098,350.442 225.5,351.5C 230.305,352.487 235.305,352.821 240.5,352.5C 227.565,356.021 216.731,352.355 208,341.5C 204.595,337.031 203.261,332.031 204,326.5C 205.255,324.406 207.088,323.406 209.5,323.5C 213.783,325.304 218.116,327.137 222.5,329C 233.522,330.993 243.855,329.327 253.5,324C 258.2,322.865 260.866,324.699 261.5,329.5C 259.248,341.002 252.582,348.669 241.5,352.5 Z"/></g>
<g><path style="opacity:1" fill="#f7557e" d="M 350.5,322.5 C 352.25,323.87 354.25,324.87 356.5,325.5C 358.167,327.833 360.167,329.833 362.5,331.5C 363.338,331.842 363.672,332.508 363.5,333.5C 363.688,337.091 362.855,340.424 361,343.5C 358.522,345.639 356.022,347.639 353.5,349.5C 351.214,349.595 349.214,350.262 347.5,351.5C 342.456,351.827 337.456,351.494 332.5,350.5C 331.757,349.818 331.091,349.151 330.5,348.5C 328.408,346.876 326.241,345.209 324,343.5C 322.314,340.019 321.481,336.352 321.5,332.5C 322.5,332.5 323.5,332.5 324.5,332.5C 324.433,331.041 324.766,329.708 325.5,328.5C 328.354,326.491 331.354,324.657 334.5,323C 339.823,322.501 345.156,322.334 350.5,322.5 Z"/></g>
<g><path style="opacity:0.01" fill="#11192a" d="M 420.5,319.5 C 420.477,325.712 419.81,331.712 418.5,337.5C 418.388,331.274 419.054,325.274 420.5,319.5 Z"/></g>
<g><path style="opacity:1" fill="#f7567e" d="M 134.5,323.5 C 138.167,326.167 141.833,328.833 145.5,331.5C 145.289,342.051 139.955,348.385 129.5,350.5C 121.846,350.332 114.513,348.832 107.5,346C 104.421,342.386 102.755,338.219 102.5,333.5C 102.351,332.448 102.517,331.448 103,330.5C 105.232,329.157 107.066,327.49 108.5,325.5C 110.05,324.559 111.716,323.893 113.5,323.5C 120.551,322.285 127.551,322.285 134.5,323.5 Z"/></g>
<g><path style="opacity:1" fill="#d66285" d="M 325.5,328.5 C 324.766,329.708 324.433,331.041 324.5,332.5C 323.5,332.5 322.5,332.5 321.5,332.5C 321.481,336.352 322.314,340.019 324,343.5C 326.241,345.209 328.408,346.876 330.5,348.5C 321.831,346.182 318.498,340.516 320.5,331.5C 321.899,330.11 323.566,329.11 325.5,328.5 Z"/></g>
<g><path style="opacity:1" fill="#ce6488" d="M 102.5,333.5 C 102.755,338.219 104.421,342.386 107.5,346C 114.513,348.832 121.846,350.332 129.5,350.5C 125.702,351.483 121.702,351.817 117.5,351.5C 115.5,350.833 113.5,350.167 111.5,349.5C 102.94,347.206 99.94,341.873 102.5,333.5 Z"/></g>
<g><path style="opacity:1" fill="#826985" d="M 363.5,333.5 C 365.306,338.47 364.306,342.803 360.5,346.5C 358.947,348.385 356.947,349.385 354.5,349.5C 354.167,349.5 353.833,349.5 353.5,349.5C 356.022,347.639 358.522,345.639 361,343.5C 362.855,340.424 363.688,337.091 363.5,333.5 Z"/></g>
<g><path style="opacity:1" fill="#e24e76" d="M 241.5,350.5 C 236.228,351.4 230.895,351.733 225.5,351.5C 222.098,350.442 221.598,348.442 224,345.5C 228.789,342.08 233.956,341.58 239.5,344C 242.321,345.621 242.987,347.788 241.5,350.5 Z"/></g>
<g><path style="opacity:1" fill="#3d0c28" d="M 241.5,350.5 C 241.5,351.167 241.5,351.833 241.5,352.5C 241.167,352.5 240.833,352.5 240.5,352.5C 235.305,352.821 230.305,352.487 225.5,351.5C 230.895,351.733 236.228,351.4 241.5,350.5 Z"/></g>
<g><path style="opacity:0.02" fill="#0b0e1d" d="M 417.5,349.5 C 417.904,354.783 417.238,359.783 415.5,364.5C 415.847,359.32 416.513,354.32 417.5,349.5 Z"/></g>
<g><path style="opacity:1" fill="#090816" d="M 111.5,349.5 C 113.5,350.167 115.5,350.833 117.5,351.5C 124.355,429.112 130.521,506.779 136,584.5C 138.48,597.992 145.314,608.492 156.5,616C 158.581,616.869 160.747,617.369 163,617.5C 167.345,616.661 171.345,614.994 175,612.5C 178.146,614.297 178.313,616.464 175.5,619C 161.614,626.267 150.114,623.433 141,610.5C 135.438,603.039 131.772,594.706 130,585.5C 123.943,506.822 117.777,428.155 111.5,349.5 Z"/></g>
<g><path style="opacity:0.012" fill="#121d2f" d="M 415.5,365.5 C 415.414,372.037 414.747,378.37 413.5,384.5C 413.337,377.938 414.004,371.605 415.5,365.5 Z"/></g>
<g><path style="opacity:0.376" fill="#172237" d="M 413.5,387.5 C 413.332,393.034 412.665,398.367 411.5,403.5C 411.255,397.916 411.922,392.583 413.5,387.5 Z"/></g>
<g><path style="opacity:0.365" fill="#22293b" d="M 54.5,407.5 C 57.1028,421.585 58.7694,435.918 59.5,450.5C 57.1124,436.39 55.4457,422.056 54.5,407.5 Z"/></g>
<g><path style="opacity:1" fill="#243042" d="M 410.5,414.5 C 410.015,424.031 409.015,433.364 407.5,442.5C 406.891,432.838 407.891,423.505 410.5,414.5 Z"/></g>
<g><path style="opacity:1" fill="#0a0917" d="M 353.5,349.5 C 353.833,349.5 354.167,349.5 354.5,349.5C 347.185,427.383 340.685,505.383 335,583.5C 333.085,596.496 327.585,607.663 318.5,617C 310.062,624.014 301.062,625.014 291.5,620C 287.332,617.924 286.832,615.424 290,612.5C 292.752,613.586 295.252,615.086 297.5,617C 301.261,617.738 304.928,617.405 308.5,616C 319.063,609.403 325.563,599.903 328,587.5C 334.251,508.817 340.751,430.151 347.5,351.5C 349.214,350.262 351.214,349.595 353.5,349.5 Z"/></g>
<g><path style="opacity:0.478" fill="#161d30" d="M 407.5,443.5 C 405.735,464.852 403.401,485.852 400.5,506.5C 401.989,485.264 404.322,464.264 407.5,443.5 Z"/></g>
<g><path style="opacity:0.051" fill="#161d2f" d="M 59.5,450.5 C 60.9833,457.279 61.65,464.279 61.5,471.5C 60.1246,464.711 59.4579,457.711 59.5,450.5 Z"/></g>
<g><path style="opacity:1" fill="#516f84" d="M 399.5,232.5 C 399.523,235.457 400.523,237.957 402.5,240C 401.151,240.772 400.318,241.939 400,243.5C 393.601,281.69 388.268,320.023 384,358.5C 374.662,455.873 364.995,553.206 355,650.5C 353.222,664.051 347.722,675.717 338.5,685.5C 335.933,685.721 333.599,686.388 331.5,687.5C 328.447,687.111 325.78,687.777 323.5,689.5C 323.167,689.5 322.833,689.5 322.5,689.5C 310.206,691.209 297.872,692.542 285.5,693.5C 304.644,683.602 317.477,668.268 324,647.5C 331.105,627.973 336.439,607.973 340,587.5C 346.021,536.941 351.021,486.274 355,435.5C 356.591,405.808 358.424,376.141 360.5,346.5C 364.306,342.803 365.306,338.47 363.5,333.5C 363.672,332.508 363.338,331.842 362.5,331.5C 364.329,304.544 366.329,277.544 368.5,250.5C 368.498,247.314 368.165,244.314 367.5,241.5C 370.952,234.88 375.952,229.714 382.5,226C 389.939,223.792 395.606,225.958 399.5,232.5 Z"/></g>
<g><path style="opacity:0.075" fill="#1b2234" d="M 61.5,471.5 C 64.0154,488.633 66.0154,505.966 67.5,523.5C 67.1667,523.5 66.8333,523.5 66.5,523.5C 64.4371,506.205 62.7705,488.871 61.5,471.5 Z"/></g>
<g><path style="opacity:1" fill="#080717" d="M 66.5,523.5 C 66.8333,523.5 67.1667,523.5 67.5,523.5C 72.8585,568.416 77.6918,613.416 82,658.5C 84.5599,663.116 87.7265,667.282 91.5,671C 98.7012,675.934 106.368,679.767 114.5,682.5C 87.0809,676.712 74.4142,659.712 76.5,631.5C 73.7155,629.239 70.7155,628.905 67.5,630.5C 56.7336,629.443 52.0669,623.609 53.5,613C 52.0986,591.439 51.2652,569.939 51,548.5C 52.7919,544.872 55.6253,542.539 59.5,541.5C 62.1956,544.071 64.6956,543.737 67,540.5C 66.9244,535.338 66.4244,530.171 65.5,525C 65.5699,524.235 65.9033,523.735 66.5,523.5 Z"/></g>
<g><path style="opacity:1" fill="#7693a1" d="M 60.5,544.5 C 60.7839,547.777 60.4505,550.943 59.5,554C 57.2381,554.642 55.0715,555.475 53,556.5C 52.5034,554.19 52.3367,551.857 52.5,549.5C 53.7894,546.21 56.1228,543.877 59.5,542.5C 60.2975,542.957 60.6309,543.624 60.5,544.5 Z"/></g>
<g><path style="opacity:1" fill="#090816" d="M 228.5,381.5 C 243.897,381.727 255.064,388.727 262,402.5C 266.899,414.167 268.732,426.334 267.5,439C 266.187,491.171 264.687,543.338 263,595.5C 261.709,610.613 254.543,621.779 241.5,629C 224.597,632.797 212.764,626.631 206,610.5C 204.798,607.226 203.798,603.893 203,600.5C 200.479,545.04 198.646,489.54 197.5,434C 195.866,415.896 201.532,400.563 214.5,388C 218.892,384.967 223.559,382.8 228.5,381.5 Z"/></g>
<g><path style="opacity:1" fill="#698598" d="M 229.5,387.5 C 239.317,387.658 247.15,391.658 253,399.5C 259.389,408.837 262.223,419.171 261.5,430.5C 260.187,485.505 258.687,540.505 257,595.5C 255.413,607.2 249.913,616.367 240.5,623C 230.47,626.545 222.304,624.045 216,615.5C 211.769,609.478 209.103,602.811 208,595.5C 205.785,535.517 204.785,475.517 205,415.5C 208.122,401.556 216.289,392.223 229.5,387.5 Z"/></g>
<g><path style="opacity:0.985" fill="#33495f" d="M 60.5,544.5 C 64.0755,572.262 66.7421,600.262 68.5,628.5C 62.7961,629.564 58.6294,627.564 56,622.5C 54.9155,599.472 53.4155,576.472 51.5,553.5C 51.5108,551.955 51.8442,550.622 52.5,549.5C 52.3367,551.857 52.5034,554.19 53,556.5C 55.0715,555.475 57.2381,554.642 59.5,554C 60.4505,550.943 60.7839,547.777 60.5,544.5 Z"/></g>
<g><path style="opacity:0.055" fill="#151d31" d="M 392.5,581.5 C 392.546,588.05 391.879,594.383 390.5,600.5C 390.454,593.95 391.121,587.617 392.5,581.5 Z"/></g>
<g><path style="opacity:0.02" fill="#131829" d="M 390.5,600.5 C 390.582,609.76 389.582,618.76 387.5,627.5C 387.919,618.294 388.919,609.294 390.5,600.5 Z"/></g>
<g><path style="opacity:0.004" fill="#09091e" d="M 363.5,677.5 C 361.824,679.834 359.491,680.834 356.5,680.5C 358.649,679.264 360.982,678.264 363.5,677.5 Z"/></g>
<g><path style="opacity:0.718" fill="#232c3b" d="M 114.5,682.5 C 118.286,682.32 121.619,683.32 124.5,685.5C 120.838,685.277 117.505,684.277 114.5,682.5 Z"/></g>
<g><path style="opacity:0.02" fill="#0b101e" d="M 347.5,683.5 C 342.559,685.96 337.225,687.293 331.5,687.5C 333.599,686.388 335.933,685.721 338.5,685.5C 341.402,684.422 344.402,683.756 347.5,683.5 Z"/></g>
<g><path style="opacity:1" fill="#404d5f" d="M 124.5,685.5 C 129.643,684.946 134.31,685.946 138.5,688.5C 133.556,688.246 128.889,687.246 124.5,685.5 Z"/></g>
<g><path style="opacity:0.022" fill="#0b1220" d="M 331.5,687.5 C 329.162,689.04 326.495,689.706 323.5,689.5C 325.78,687.777 328.447,687.111 331.5,687.5 Z"/></g>
<g><path style="opacity:0.961" fill="#313c4c" d="M 149.5,690.5 C 160.038,691.275 170.371,692.608 180.5,694.5C 169.917,694.053 159.583,692.719 149.5,690.5 Z"/></g>
<g><path style="opacity:0.025" fill="#101524" d="M 322.5,689.5 C 306.518,693.268 290.185,695.268 273.5,695.5C 277.336,694.622 281.336,693.956 285.5,693.5C 297.872,692.542 310.206,691.209 322.5,689.5 Z"/></g>
<g><path style="opacity:0.022" fill="#0e1222" d="M 273.5,695.5 C 270.5,696.167 267.5,696.833 264.5,697.5C 248.167,697.5 231.833,697.5 215.5,697.5C 215.5,697.167 215.5,696.833 215.5,696.5C 234.843,696.601 254.177,696.267 273.5,695.5 Z"/></g>
</svg>
