<?xml version="1.0" encoding="UTF-8"?>
<!DOCTYPE svg PUBLIC "-//W3C//DTD SVG 1.1//EN" "http://www.w3.org/Graphics/SVG/1.1/DTD/svg11.dtd">
<svg xmlns="http://www.w3.org/2000/svg" version="1.1" width="635px" height="494px" style="shape-rendering:geometricPrecision; text-rendering:geometricPrecision; image-rendering:optimizeQuality; fill-rule:evenodd; clip-rule:evenodd" xmlns:xlink="http://www.w3.org/1999/xlink">
<g><path style="opacity:0.147" fill="#270324" d="M 77.5,-0.5 C 90.8333,-0.5 104.167,-0.5 117.5,-0.5C 118.5,0.833333 119.5,0.833333 120.5,-0.5C 121.5,-0.5 122.5,-0.5 123.5,-0.5C 127.833,0.833333 132.167,0.833333 136.5,-0.5C 137.5,-0.5 138.5,-0.5 139.5,-0.5C 162.833,0.833333 186.167,0.833333 209.5,-0.5C 210.833,-0.5 212.167,-0.5 213.5,-0.5C 215.167,0.833333 216.833,0.833333 218.5,-0.5C 219.5,-0.5 220.5,-0.5 221.5,-0.5C 222.167,0.833333 222.833,0.833333 223.5,-0.5C 226.167,-0.5 228.833,-0.5 231.5,-0.5C 236.167,0.833333 240.833,0.833333 245.5,-0.5C 246.833,-0.5 248.167,-0.5 249.5,-0.5C 281.5,0.833333 313.5,0.833333 345.5,-0.5C 345.833,-0.5 346.167,-0.5 346.5,-0.5C 356.833,0.833333 367.167,0.833333 377.5,-0.5C 377.833,-0.5 378.167,-0.5 378.5,-0.5C 383.167,0.833333 387.833,0.833333 392.5,-0.5C 393.5,-0.5 394.5,-0.5 395.5,-0.5C 403.5,0.833333 411.5,0.833333 419.5,-0.5C 419.833,-0.5 420.167,-0.5 420.5,-0.5C 421.167,0.833333 421.833,0.833333 422.5,-0.5C 422.833,-0.5 423.167,-0.5 423.5,-0.5C 450.833,0.833333 478.167,0.833333 505.5,-0.5C 511.5,-0.5 517.5,-0.5 523.5,-0.5C 532.658,0.329895 541.991,0.829895 551.5,1C 553.382,1.19808 555.048,1.69808 556.5,2.5C 395.513,1.50983 234.513,1.1765 73.5,1.5C 74.8333,0.833333 76.1667,0.166667 77.5,-0.5 Z"/></g>
<g><path style="opacity:0.596" fill="#2c0428" d="M 73.5,1.5 C 234.513,1.1765 395.513,1.50983 556.5,2.5C 560.119,3.18047 563.786,3.68047 567.5,4C 568.056,4.38258 568.389,4.88258 568.5,5.5C 562.529,4.7588 556.529,4.42547 550.5,4.5C 550.167,4.5 549.833,4.5 549.5,4.5C 549.5,3.83333 549.167,3.5 548.5,3.5C 390.667,2.33386 232.667,2.16719 74.5,3C 70.853,3.7745 67.1864,4.44116 63.5,5C 62.7476,5.67076 62.4142,6.5041 62.5,7.5C 54.1352,8.47833 47.1352,11.9783 41.5,18C 38.6441,19.2587 35.9774,20.7587 33.5,22.5C 31.9382,22.7329 30.6049,23.3995 29.5,24.5C 30.3891,22.264 31.7224,20.264 33.5,18.5C 36.0912,16.7188 38.4245,14.7188 40.5,12.5C 50.5143,6.27292 61.5143,2.60626 73.5,1.5 Z"/></g>
<g><path style="opacity:0.94" fill="#34052e" d="M 548.5,3.5 C 391.833,3.33333 235.166,3.5 78.5,4C 76.9419,4.21003 75.6085,4.71003 74.5,5.5C 70.2527,5.19412 66.2527,5.86079 62.5,7.5C 62.4142,6.5041 62.7476,5.67076 63.5,5C 67.1864,4.44116 70.853,3.7745 74.5,3C 232.667,2.16719 390.667,2.33386 548.5,3.5 Z"/></g>
<g><path style="opacity:1" fill="#3a0634" d="M 548.5,3.5 C 549.167,3.5 549.5,3.83333 549.5,4.5C 391.154,4.17667 232.821,4.51 74.5,5.5C 75.6085,4.71003 76.9419,4.21003 78.5,4C 235.166,3.5 391.833,3.33333 548.5,3.5 Z"/></g>
<g><path style="opacity:1" fill="#43083b" d="M 549.5,4.5 C 549.833,4.5 550.167,4.5 550.5,4.5C 550.5,4.83333 550.5,5.16667 550.5,5.5C 394.332,5.16702 238.332,5.50036 82.5,6.5C 70.6431,6.89578 59.3097,9.56245 48.5,14.5C 44.8842,17.616 40.8842,20.116 36.5,22C 31.231,29.4256 25.231,35.9256 18.5,41.5C 18.8923,39.8211 19.3923,38.1545 20,36.5C 24.7033,31.9645 29.2033,27.2979 33.5,22.5C 35.9774,20.7587 38.6441,19.2587 41.5,18C 47.1352,11.9783 54.1352,8.47833 62.5,7.5C 66.2527,5.86079 70.2527,5.19412 74.5,5.5C 232.821,4.51 391.154,4.17667 549.5,4.5 Z"/></g>
<g><path style="opacity:1" fill="#4c0942" d="M 82.5,6.5 C 238.332,5.50036 394.332,5.16702 550.5,5.5C 553.187,5.33591 555.854,5.50258 558.5,6C 559.056,6.38258 559.389,6.88258 559.5,7.5C 400.528,6.50428 241.528,6.17095 82.5,6.5 Z"/></g>
<g><path style="opacity:1" fill="#5a0b4c" d="M 82.5,6.5 C 241.528,6.17095 400.528,6.50428 559.5,7.5C 576.181,10.4169 590.348,18.0835 602,30.5C 602.273,32.3289 603.107,33.8289 604.5,35C 607.196,35.6898 609.363,37.1898 611,39.5C 612.143,42.7769 612.977,46.1102 613.5,49.5C 612.108,47.7274 610.941,45.7274 610,43.5C 603.686,38.428 598.186,32.5947 593.5,26C 586.478,20.7744 578.812,16.9411 570.5,14.5C 564.529,10.5666 557.863,8.89992 550.5,9.5C 390.001,8.33385 229.334,8.16719 68.5,9C 63.6043,10.9462 58.6043,12.6128 53.5,14C 51.9069,14.9487 50.5736,16.1154 49.5,17.5C 46.94,18.3847 44.94,20.0514 43.5,22.5C 42.1266,22.3433 40.7932,22.51 39.5,23C 35.4808,25.8438 32.1474,29.3438 29.5,33.5C 27.1659,35.4408 24.6659,37.1075 22,38.5C 21.0076,42.2862 19.8409,45.9528 18.5,49.5C 17.5,49.5 16.5,49.5 15.5,49.5C 16.1267,54.0589 14.7934,57.7256 11.5,60.5C 12.0233,57.1102 12.8566,53.7769 14,50.5C 16.0596,47.7143 17.5596,44.7143 18.5,41.5C 25.231,35.9256 31.231,29.4256 36.5,22C 40.8842,20.116 44.8842,17.616 48.5,14.5C 59.3097,9.56245 70.6431,6.89578 82.5,6.5 Z"/></g>
<g><path style="opacity:1" fill="#6e0e5a" d="M 550.5,9.5 C 392.166,9.33333 233.833,9.5 75.5,10C 66.6353,12.067 57.9686,14.567 49.5,17.5C 50.5736,16.1154 51.9069,14.9487 53.5,14C 58.6043,12.6128 63.6043,10.9462 68.5,9C 229.334,8.16719 390.001,8.33385 550.5,9.5 Z"/></g>
<g><path style="opacity:1" fill="#7f106a" d="M 550.5,9.5 C 557.863,8.89992 564.529,10.5666 570.5,14.5C 569.167,14.5 567.833,14.5 566.5,14.5C 562.828,13.7592 559.161,12.5925 555.5,11C 396.333,10.1672 237.333,10.3339 78.5,11.5C 70.7864,12.372 63.453,14.372 56.5,17.5C 51.9823,18.6836 47.649,20.3502 43.5,22.5C 44.94,20.0514 46.94,18.3847 49.5,17.5C 57.9686,14.567 66.6353,12.067 75.5,10C 233.833,9.5 392.166,9.33333 550.5,9.5 Z"/></g>
<g><path style="opacity:1" fill="#910e76" d="M 78.5,11.5 C 237.333,10.3339 396.333,10.1672 555.5,11C 559.161,12.5925 562.828,13.7592 566.5,14.5C 562.833,14.5 559.167,14.5 555.5,14.5C 555.196,13.8501 554.863,13.1835 554.5,12.5C 395.835,11.5 237.168,11.1667 78.5,11.5 Z"/></g>
<g><path style="opacity:1" fill="#b42392" d="M 78.5,11.5 C 237.168,11.1667 395.835,11.5 554.5,12.5C 554.863,13.1835 555.196,13.8501 555.5,14.5C 394.5,14.3333 233.5,14.5 72.5,15C 68.9477,15.8775 65.6144,17.0442 62.5,18.5C 60.4352,18.5172 58.4352,18.8505 56.5,19.5C 56.5,18.8333 56.5,18.1667 56.5,17.5C 63.453,14.372 70.7864,12.372 78.5,11.5 Z"/></g>
<g><path style="opacity:0.265" fill="#20031e" d="M 523.5,-0.5 C 534.5,-0.5 545.5,-0.5 556.5,-0.5C 566.339,1.88228 576.005,5.04895 585.5,9C 591.412,11.778 596.745,15.278 601.5,19.5C 604.796,23.2976 608.296,26.9643 612,30.5C 615.147,38.0127 618.814,45.3461 623,52.5C 624.079,55.0627 624.579,57.7294 624.5,60.5C 622.603,57.495 621.27,54.1616 620.5,50.5C 619.226,48.5486 617.56,47.2152 615.5,46.5C 614.499,41.4996 612.666,36.833 610,32.5C 603.444,24.1126 595.277,17.7793 585.5,13.5C 580.795,8.98262 575.128,6.31595 568.5,5.5C 568.389,4.88258 568.056,4.38258 567.5,4C 563.786,3.68047 560.119,3.18047 556.5,2.5C 555.048,1.69808 553.382,1.19808 551.5,1C 541.991,0.829895 532.658,0.329895 523.5,-0.5 Z"/></g>
<g><path style="opacity:1" fill="#fcf4fa" d="M 555.5,14.5 C 563.388,16.3523 571.054,19.019 578.5,22.5C 578.5,23.8333 578.5,25.1667 578.5,26.5C 575.833,26.1667 573.167,25.8333 570.5,25.5C 570.167,25.5 569.833,25.5 569.5,25.5C 566.838,24.5014 564.172,23.5014 561.5,22.5C 559.723,21.3995 557.723,20.5662 555.5,20C 395.666,19.1672 235.999,19.3339 76.5,20.5C 72.1463,20.9926 68.1463,22.3259 64.5,24.5C 62.4352,24.5172 60.4352,24.8505 58.5,25.5C 56.396,25.7989 54.396,25.4656 52.5,24.5C 54.7427,23.5258 57.076,23.1924 59.5,23.5C 59.5,22.1667 59.5,20.8333 59.5,19.5C 60.791,19.7373 61.791,19.404 62.5,18.5C 65.6144,17.0442 68.9477,15.8775 72.5,15C 233.5,14.5 394.5,14.3333 555.5,14.5 Z"/></g>
<g><path style="opacity:1" fill="#fef2fe" d="M 76.5,20.5 C 235.999,19.3339 395.666,19.1672 555.5,20C 557.723,20.5662 559.723,21.3995 561.5,22.5C 560.167,22.5 558.833,22.5 557.5,22.5C 556.737,21.7321 555.737,21.2321 554.5,21C 395.167,20.5 235.834,20.3333 76.5,20.5 Z"/></g>
<g><path style="opacity:0.598" fill="#20041e" d="M 40.5,12.5 C 38.4245,14.7188 36.0912,16.7188 33.5,18.5C 31.7224,20.264 30.3891,22.264 29.5,24.5C 24.849,27.489 21.1824,31.489 18.5,36.5C 16.8065,39.1897 14.4732,41.1897 11.5,42.5C 17.1223,28.5876 26.7889,18.5876 40.5,12.5 Z"/></g>
<g><path style="opacity:1" fill="#ef6cc8" d="M 76.5,20.5 C 235.834,20.3333 395.167,20.5 554.5,21C 555.737,21.2321 556.737,21.7321 557.5,22.5C 503.833,22.5 450.167,22.5 396.5,22.5C 394.833,22.5 393.167,22.5 391.5,22.5C 284.833,22.3333 178.166,22.5 71.5,23C 69.26,23.977 66.9267,24.477 64.5,24.5C 68.1463,22.3259 72.1463,20.9926 76.5,20.5 Z"/></g>
<g><path style="opacity:1" fill="#f938bf" d="M 396.5,22.5 C 450.167,22.5 503.833,22.5 557.5,22.5C 558.833,22.5 560.167,22.5 561.5,22.5C 564.172,23.5014 566.838,24.5014 569.5,25.5C 571.176,28.2451 573.51,30.4118 576.5,32C 576.554,33.3509 576.054,34.5176 575,35.5C 573.145,34.3368 571.811,32.6701 571,30.5C 570.667,30.8333 570.333,31.1667 570,31.5C 565.905,30.8674 562.738,28.8674 560.5,25.5C 556.29,25.0418 552.123,24.7084 548,24.5C 547.333,25.1667 546.667,25.8333 546,26.5C 544.333,25.5 542.667,24.5 541,23.5C 538.848,24.8853 536.515,25.8853 534,26.5C 520.949,25.6204 507.949,25.6204 495,26.5C 493.289,26.5607 491.956,25.8941 491,24.5C 489.874,25.9436 488.374,26.6102 486.5,26.5C 483.638,25.4027 480.805,25.4027 478,26.5C 476.667,25.8333 475.333,25.1667 474,24.5C 469,25.8333 464,25.8333 459,24.5C 457.604,25.3943 456.104,26.0609 454.5,26.5C 438.772,25.2991 422.772,25.2991 406.5,26.5C 404.149,24.7711 401.482,24.1044 398.5,24.5C 398.255,28.8807 396.255,29.714 392.5,27C 393.833,26 393.833,25 392.5,24C 394.058,23.79 395.391,23.29 396.5,22.5 Z"/></g>
<g><path style="opacity:1" fill="#f936be" d="M 391.5,22.5 C 391.586,23.4959 391.252,24.3292 390.5,25C 386.85,26.5022 383.184,26.6688 379.5,25.5C 378.719,26.7366 377.719,27.7366 376.5,28.5C 375.646,27.4783 374.646,26.6449 373.5,26C 370.11,25.7537 366.777,25.2537 363.5,24.5C 359.833,25.8333 356.167,27.1667 352.5,28.5C 351.126,27.2887 349.626,26.2887 348,25.5C 344.588,27.9563 341.088,27.9563 337.5,25.5C 335.303,25.8481 333.47,26.8481 332,28.5C 331.751,27.376 331.251,26.376 330.5,25.5C 322.374,26.4172 314.374,26.4172 306.5,25.5C 303.988,25.9942 301.655,26.9942 299.5,28.5C 298.707,27.6446 299.04,26.8113 300.5,26C 299.667,25.8333 298.833,25.6667 298,25.5C 287.47,26.7393 276.97,26.7393 266.5,25.5C 264.956,25.7896 263.623,26.4563 262.5,27.5C 257.768,24.8937 253.101,24.8937 248.5,27.5C 246.568,26.6339 244.568,25.9672 242.5,25.5C 232.725,25.6775 223.225,26.0109 214,26.5C 213.311,25.6433 212.478,24.9767 211.5,24.5C 205.232,27.0094 199.066,27.3428 193,25.5C 186.655,26.1617 180.321,26.495 174,26.5C 171.569,24.579 168.902,24.579 166,26.5C 159.488,25.5872 152.822,25.2539 146,25.5C 142.137,26.0049 138.304,26.6716 134.5,27.5C 127.956,25.848 121.289,24.848 114.5,24.5C 107.276,25.444 100.109,26.1107 93,26.5C 92.3261,25.4216 91.3261,24.7549 90,24.5C 88.1595,25.125 86.3261,25.2917 84.5,25C 85.6956,24.3457 85.6956,23.8457 84.5,23.5C 79.5855,25.0644 74.7522,26.0644 70,26.5C 69.586,26.0426 69.086,25.7093 68.5,25.5C 62.3924,27.9005 57.0591,31.2338 52.5,35.5C 51.7375,34.7321 50.7375,34.2321 49.5,34C 49.8333,33.6667 50.1667,33.3333 50.5,33C 55.5776,30.7374 60.2443,27.9041 64.5,24.5C 66.9267,24.477 69.26,23.977 71.5,23C 178.166,22.5 284.833,22.3333 391.5,22.5 Z"/></g>
<g><path style="opacity:1" fill="#fa33b8" d="M 391.5,22.5 C 393.167,22.5 394.833,22.5 396.5,22.5C 395.391,23.29 394.058,23.79 392.5,24C 393.833,25 393.833,26 392.5,27C 396.255,29.714 398.255,28.8807 398.5,24.5C 401.482,24.1044 404.149,24.7711 406.5,26.5C 422.772,25.2991 438.772,25.2991 454.5,26.5C 456.104,26.0609 457.604,25.3943 459,24.5C 464,25.8333 469,25.8333 474,24.5C 475.333,25.1667 476.667,25.8333 478,26.5C 480.805,25.4027 483.638,25.4027 486.5,26.5C 488.374,26.6102 489.874,25.9436 491,24.5C 491.956,25.8941 493.289,26.5607 495,26.5C 507.949,25.6204 520.949,25.6204 534,26.5C 536.515,25.8853 538.848,24.8853 541,23.5C 542.667,24.5 544.333,25.5 546,26.5C 546.667,25.8333 547.333,25.1667 548,24.5C 552.123,24.7084 556.29,25.0418 560.5,25.5C 562.738,28.8674 565.905,30.8674 570,31.5C 570.333,31.1667 570.667,30.8333 571,30.5C 571.811,32.6701 573.145,34.3368 575,35.5C 576.054,34.5176 576.554,33.3509 576.5,32C 573.51,30.4118 571.176,28.2451 569.5,25.5C 569.833,25.5 570.167,25.5 570.5,25.5C 583.572,31.0633 593.738,40.0633 601,52.5C 602.707,54.9088 603.54,57.5755 603.5,60.5C 604.747,64.7147 605.58,69.048 606,73.5C 606.8,165.174 606.634,256.841 605.5,348.5C 605.579,351.271 605.079,353.937 604,356.5C 602.235,359.032 600.735,361.699 599.5,364.5C 597.208,364.756 595.041,364.423 593,363.5C 588.377,369.114 583.211,374.947 577.5,381C 576.451,381.492 575.451,381.326 574.5,380.5C 572.729,381.035 572.396,381.869 573.5,383C 569.062,383.975 565.062,385.808 561.5,388.5C 562.954,390.263 562.62,391.597 560.5,392.5C 547.652,391.384 534.818,391.384 522,392.5C 518.025,392.502 514.358,391.502 511,389.5C 505.462,392.835 499.462,393.168 493,390.5C 490.73,391.999 488.73,391.665 487,389.5C 486,389.833 485,390.167 484,390.5C 481.296,393.526 478.129,396.026 474.5,398C 475.731,399.183 475.731,400.349 474.5,401.5C 473.483,398.972 472.316,398.972 471,401.5C 470.619,404.978 469.452,408.145 467.5,411C 468.973,411.71 469.64,412.876 469.5,414.5C 468.559,416.05 467.893,417.716 467.5,419.5C 459.167,432.167 450.833,444.833 442.5,457.5C 439.748,457.578 437.082,457.745 434.5,458C 432.302,455.417 430.469,452.584 429,449.5C 427.013,453.367 426.513,453.367 427.5,449.5C 426.833,448.167 425.833,447.167 424.5,446.5C 423.605,444.754 422.938,442.92 422.5,441C 423.384,439.902 424.384,439.402 425.5,439.5C 424.5,438.667 423.5,437.833 422.5,437C 422.833,436.667 423.167,436.333 423.5,436C 422.552,435.517 421.552,435.351 420.5,435.5C 421.024,432.761 421.024,430.095 420.5,427.5C 415.918,426.05 412.918,423.05 411.5,418.5C 410.28,417.289 409.113,417.289 408,418.5C 407.654,416.782 407.154,415.115 406.5,413.5C 409.168,412.485 409.834,410.818 408.5,408.5C 407.186,409.313 406.019,410.313 405,411.5C 403.438,409.043 402.438,406.376 402,403.5C 401.667,403.833 401.333,404.167 401,404.5C 400.581,403.328 399.915,402.328 399,401.5C 396.864,405.204 395.031,405.204 393.5,401.5C 394.811,400.742 395.311,399.742 395,398.5C 393.266,396.549 391.099,395.549 388.5,395.5C 387.833,395.5 387.167,395.5 386.5,395.5C 386.082,394.778 385.416,394.278 384.5,394C 280.167,393.667 175.833,393.333 71.5,393C 68.5999,392.057 66.2666,390.39 64.5,388C 64.9574,387.586 65.2907,387.086 65.5,386.5C 62.9738,384.255 60.3071,384.255 57.5,386.5C 55.4775,384.827 53.1441,384.16 50.5,384.5C 50.7703,378.984 48.7703,377.65 44.5,380.5C 37.4709,374.767 32.1375,367.767 28.5,359.5C 27.5937,353.703 26.9271,347.87 26.5,342C 27.0691,296.569 27.4025,251.069 27.5,205.5C 26.8038,201.015 26.1371,196.515 25.5,192C 27.0592,164.642 27.3925,137.309 26.5,110C 26.4016,103.4 27.0683,96.9001 28.5,90.5C 26.2536,84.9602 25.9202,79.2936 27.5,73.5C 28.4345,72.4324 28.7678,71.099 28.5,69.5C 30.143,69.5198 31.4763,68.8532 32.5,67.5C 33.086,67.7093 33.586,68.0426 34,68.5C 34.2362,66.236 34.7362,64.0693 35.5,62C 37.1984,62.4969 38.8651,62.3302 40.5,61.5C 41.2875,58.1518 42.1208,54.8185 43,51.5C 43.8996,50.2298 45.0663,49.2298 46.5,48.5C 46.0623,47.4937 45.3957,47.4937 44.5,48.5C 43.4173,47.635 43.2506,46.635 44,45.5C 44.6667,44.1667 45.3333,44.1667 46,45.5C 47.0409,42.239 47.8742,39.239 48.5,36.5C 49.6888,35.5713 51.0222,35.238 52.5,35.5C 57.0591,31.2338 62.3924,27.9005 68.5,25.5C 69.086,25.7093 69.586,26.0426 70,26.5C 74.7522,26.0644 79.5855,25.0644 84.5,23.5C 85.6956,23.8457 85.6956,24.3457 84.5,25C 86.3261,25.2917 88.1595,25.125 90,24.5C 91.3261,24.7549 92.3261,25.4216 93,26.5C 100.109,26.1107 107.276,25.444 114.5,24.5C 121.289,24.848 127.956,25.848 134.5,27.5C 138.304,26.6716 142.137,26.0049 146,25.5C 152.822,25.2539 159.488,25.5872 166,26.5C 168.902,24.579 171.569,24.579 174,26.5C 180.321,26.495 186.655,26.1617 193,25.5C 199.066,27.3428 205.232,27.0094 211.5,24.5C 212.478,24.9767 213.311,25.6433 214,26.5C 223.225,26.0109 232.725,25.6775 242.5,25.5C 244.568,25.9672 246.568,26.6339 248.5,27.5C 253.101,24.8937 257.768,24.8937 262.5,27.5C 263.623,26.4563 264.956,25.7896 266.5,25.5C 276.97,26.7393 287.47,26.7393 298,25.5C 298.833,25.6667 299.667,25.8333 300.5,26C 299.04,26.8113 298.707,27.6446 299.5,28.5C 301.655,26.9942 303.988,25.9942 306.5,25.5C 314.374,26.4172 322.374,26.4172 330.5,25.5C 331.251,26.376 331.751,27.376 332,28.5C 333.47,26.8481 335.303,25.8481 337.5,25.5C 341.088,27.9563 344.588,27.9563 348,25.5C 349.626,26.2887 351.126,27.2887 352.5,28.5C 356.167,27.1667 359.833,25.8333 363.5,24.5C 366.777,25.2537 370.11,25.7537 373.5,26C 374.646,26.6449 375.646,27.4783 376.5,28.5C 377.719,27.7366 378.719,26.7366 379.5,25.5C 383.184,26.6688 386.85,26.5022 390.5,25C 391.252,24.3292 391.586,23.4959 391.5,22.5 Z"/></g>
<g><path style="opacity:1" fill="#fef3fa" d="M 62.5,18.5 C 61.791,19.404 60.791,19.7373 59.5,19.5C 59.5,20.8333 59.5,22.1667 59.5,23.5C 57.076,23.1924 54.7427,23.5258 52.5,24.5C 54.396,25.4656 56.396,25.7989 58.5,25.5C 43.0233,32.9759 32.0233,44.6425 25.5,60.5C 25.278,57.6097 25.9447,54.943 27.5,52.5C 27.1667,52.1667 26.8333,51.8333 26.5,51.5C 25.2341,53.4039 23.5675,54.7372 21.5,55.5C 29.0896,39.5765 40.7563,27.5765 56.5,19.5C 58.4352,18.8505 60.4352,18.5172 62.5,18.5 Z"/></g>
<g><path style="opacity:0.213" fill="#0f010f" d="M 620.5,39.5 C 622.223,41.2528 623.723,43.2528 625,45.5C 627.465,51.6974 629.465,58.0307 631,64.5C 632.866,82.9373 634.032,101.271 634.5,119.5C 634.5,120.167 634.5,120.833 634.5,121.5C 633.167,134.833 633.167,148.167 634.5,161.5C 634.5,170.167 634.5,178.833 634.5,187.5C 633.167,187.833 633.167,188.167 634.5,188.5C 634.5,190.833 634.5,193.167 634.5,195.5C 633.167,197.167 633.167,198.833 634.5,200.5C 634.5,201.5 634.5,202.5 634.5,203.5C 633.167,205.5 633.167,207.5 634.5,209.5C 634.5,210.167 634.5,210.833 634.5,211.5C 633.167,216.167 633.167,220.833 634.5,225.5C 634.5,226.167 634.5,226.833 634.5,227.5C 633.167,232.167 633.167,236.833 634.5,241.5C 634.5,242.167 634.5,242.833 634.5,243.5C 633.167,248.167 633.167,252.833 634.5,257.5C 634.5,258.167 634.5,258.833 634.5,259.5C 633.919,290.705 632.752,322.038 631,353.5C 627.995,368.074 621.161,380.407 610.5,390.5C 616.499,381.711 621.666,372.378 626,362.5C 628.735,355.428 630.402,348.094 631,340.5C 632.379,252.11 632.379,163.443 631,74.5C 630.638,69.8131 629.471,65.4797 627.5,61.5C 627.662,59.4727 627.495,57.4727 627,55.5C 624.729,50.1828 622.563,44.8495 620.5,39.5 Z"/></g>
<g><path style="opacity:1" fill="#f43bb9" d="M 64.5,24.5 C 60.2443,27.9041 55.5776,30.7374 50.5,33C 50.1667,33.3333 49.8333,33.6667 49.5,34C 50.7375,34.2321 51.7375,34.7321 52.5,35.5C 51.0222,35.238 49.6888,35.5713 48.5,36.5C 47.8742,39.239 47.0409,42.239 46,45.5C 45.3333,44.1667 44.6667,44.1667 44,45.5C 43.2506,46.635 43.4173,47.635 44.5,48.5C 45.3957,47.4937 46.0623,47.4937 46.5,48.5C 45.0663,49.2298 43.8996,50.2298 43,51.5C 42.1208,54.8185 41.2875,58.1518 40.5,61.5C 38.8651,62.3302 37.1984,62.4969 35.5,62C 34.7362,64.0693 34.2362,66.236 34,68.5C 33.586,68.0426 33.086,67.7093 32.5,67.5C 31.4763,68.8532 30.143,69.5198 28.5,69.5C 28.7678,71.099 28.4345,72.4324 27.5,73.5C 26.7904,71.2537 26.2904,68.9204 26,66.5C 25.6174,67.056 25.1174,67.3893 24.5,67.5C 24.6741,65.139 25.0074,62.8056 25.5,60.5C 32.0233,44.6425 43.0233,32.9759 58.5,25.5C 60.4352,24.8505 62.4352,24.5172 64.5,24.5 Z"/></g>
<g><path style="opacity:1" fill="#a8288b" d="M 555.5,14.5 C 559.167,14.5 562.833,14.5 566.5,14.5C 567.833,14.5 569.167,14.5 570.5,14.5C 572.41,16.5617 574.743,18.0617 577.5,19C 578.833,19.6667 578.833,20.3333 577.5,21C 582.208,21.0222 586.208,22.6889 589.5,26C 591.607,27.2635 592.607,29.0968 592.5,31.5C 593.552,31.3505 594.552,31.5172 595.5,32C 598.721,35.2208 601.887,38.3874 605,41.5C 606.978,44.595 608.478,47.9284 609.5,51.5C 610.855,52.1882 611.855,53.1882 612.5,54.5C 614.146,59.6275 615.146,64.9609 615.5,70.5C 614.662,70.8417 614.328,71.5084 614.5,72.5C 613.833,70.5 613.167,68.5 612.5,66.5C 607.522,46.8629 596.188,32.1962 578.5,22.5C 571.054,19.019 563.388,16.3523 555.5,14.5 Z"/></g>
<g><path style="opacity:1" fill="#750e61" d="M 570.5,14.5 C 578.812,16.9411 586.478,20.7744 593.5,26C 598.186,32.5947 603.686,38.428 610,43.5C 610.941,45.7274 612.108,47.7274 613.5,49.5C 614.167,49.5 614.5,49.8333 614.5,50.5C 615.578,53.4021 616.244,56.4021 616.5,59.5C 615.167,57.8333 613.833,56.1667 612.5,54.5C 611.855,53.1882 610.855,52.1882 609.5,51.5C 608.478,47.9284 606.978,44.595 605,41.5C 601.887,38.3874 598.721,35.2208 595.5,32C 594.552,31.5172 593.552,31.3505 592.5,31.5C 592.607,29.0968 591.607,27.2635 589.5,26C 586.208,22.6889 582.208,21.0222 577.5,21C 578.833,20.3333 578.833,19.6667 577.5,19C 574.743,18.0617 572.41,16.5617 570.5,14.5 Z"/></g>
<g><path style="opacity:1" fill="#f4baed" d="M 19.5,60.5 C 19.5905,63.1522 18.9238,65.4855 17.5,67.5C 17.4095,64.8478 18.0762,62.5145 19.5,60.5 Z"/></g>
<g><path style="opacity:0.834" fill="#160115" d="M 627.5,61.5 C 629.471,65.4797 630.638,69.8131 631,74.5C 632.379,163.443 632.379,252.11 631,340.5C 630.402,348.094 628.735,355.428 626,362.5C 621.666,372.378 616.499,381.711 610.5,390.5C 597.182,405.826 580.516,414.159 560.5,415.5C 566.91,414.374 573.244,412.541 579.5,410C 586.294,406.517 592.96,402.851 599.5,399C 602.965,394.533 606.798,390.367 611,386.5C 613.501,382.84 615.334,378.84 616.5,374.5C 622.764,365.167 626.764,354.833 628.5,343.5C 629.325,339.353 629.825,335.019 630,330.5C 630.408,248.926 630.574,167.426 630.5,86C 629.787,77.8338 628.787,69.6671 627.5,61.5 Z"/></g>
<g><path style="opacity:1" fill="#b13694" d="M 56.5,17.5 C 56.5,18.1667 56.5,18.8333 56.5,19.5C 40.7563,27.5765 29.0896,39.5765 21.5,55.5C 20.4625,56.9303 19.7959,58.597 19.5,60.5C 18.0762,62.5145 17.4095,64.8478 17.5,67.5C 16.1684,160.264 16.1684,252.931 17.5,345.5C 17.7261,349.407 18.7261,353.074 20.5,356.5C 26.8537,373.853 38.187,386.853 54.5,395.5C 56.7878,397.663 59.7878,399.663 63.5,401.5C 59.9925,401.08 56.6592,400.08 53.5,398.5C 50.1216,399.109 48.1216,397.776 47.5,394.5C 43.1546,391.802 38.8212,388.802 34.5,385.5C 31.2495,380.079 27.4161,375.079 23,370.5C 19.8016,363.236 16.8016,355.903 14,348.5C 13.5,254.167 13.3333,159.834 13.5,65.5C 16.3147,57.9914 19.6481,50.658 23.5,43.5C 29.4859,35.8476 36.1525,28.8476 43.5,22.5C 47.649,20.3502 51.9823,18.6836 56.5,17.5 Z"/></g>
<g><path style="opacity:1" fill="#49073f" d="M 622.5,73.5 C 623.666,162.999 623.832,252.666 623,342.5C 622.667,345.5 622.333,348.5 622,351.5C 621.901,353.653 621.067,355.319 619.5,356.5C 620.968,351.286 621.635,345.953 621.5,340.5C 622.499,251.668 622.833,162.668 622.5,73.5 Z"/></g>
<g><path style="opacity:1" fill="#1c011a" d="M 601.5,19.5 C 609.189,24.8566 615.523,31.5233 620.5,39.5C 622.563,44.8495 624.729,50.1828 627,55.5C 627.495,57.4727 627.662,59.4727 627.5,61.5C 628.787,69.6671 629.787,77.8338 630.5,86C 630.574,167.426 630.408,248.926 630,330.5C 629.825,335.019 629.325,339.353 628.5,343.5C 629.141,252.911 628.975,162.245 628,71.5C 627.096,67.6276 625.93,63.9609 624.5,60.5C 624.579,57.7294 624.079,55.0627 623,52.5C 618.814,45.3461 615.147,38.0127 612,30.5C 608.296,26.9643 604.796,23.2976 601.5,19.5 Z"/></g>
<g><path style="opacity:1" fill="#6b0c57" d="M 43.5,22.5 C 36.1525,28.8476 29.4859,35.8476 23.5,43.5C 19.6481,50.658 16.3147,57.9914 13.5,65.5C 12.8333,65.5 12.5,65.8333 12.5,66.5C 11.6981,67.9516 11.1981,69.6183 11,71.5C 10.1676,161.001 10.3343,250.334 11.5,339.5C 11.0455,346.082 12.5455,352.082 16,357.5C 16.977,359.74 17.477,362.073 17.5,364.5C 15.288,360.084 12.9547,355.751 10.5,351.5C 9.51219,258.185 9.17885,164.851 9.5,71.5C 10.1143,67.8648 10.4476,64.1981 10.5,60.5C 10.8333,60.5 11.1667,60.5 11.5,60.5C 14.7934,57.7256 16.1267,54.0589 15.5,49.5C 16.5,49.5 17.5,49.5 18.5,49.5C 19.8409,45.9528 21.0076,42.2862 22,38.5C 24.6659,37.1075 27.1659,35.4408 29.5,33.5C 32.1474,29.3438 35.4808,25.8438 39.5,23C 40.7932,22.51 42.1266,22.3433 43.5,22.5 Z"/></g>
<g><path style="opacity:1" fill="#ffebfc" d="M 578.5,22.5 C 596.188,32.1962 607.522,46.8629 612.5,66.5C 613.48,158.488 613.813,250.488 613.5,342.5C 613.435,345.428 612.768,348.095 611.5,350.5C 610.937,355.088 609.604,359.421 607.5,363.5C 605.597,366.299 603.931,369.299 602.5,372.5C 593.767,383.692 582.767,391.692 569.5,396.5C 570.048,393.916 571.715,392.916 574.5,393.5C 574.5,392.5 574.5,391.5 574.5,390.5C 572.194,390.993 569.861,391.326 567.5,391.5C 581.151,386.194 591.817,377.194 599.5,364.5C 600.735,361.699 602.235,359.032 604,356.5C 605.079,353.937 605.579,351.271 605.5,348.5C 606.268,347.737 606.768,346.737 607,345.5C 607.667,253.167 607.667,160.833 607,68.5C 606.613,65.4006 605.446,62.734 603.5,60.5C 603.54,57.5755 602.707,54.9088 601,52.5C 593.738,40.0633 583.572,31.0633 570.5,25.5C 573.167,25.8333 575.833,26.1667 578.5,26.5C 578.5,25.1667 578.5,23.8333 578.5,22.5 Z"/></g>
<g><path style="opacity:1" fill="#fefbfa" d="M 611.5,350.5 C 610.442,351.6 609.608,352.934 609,354.5C 606.922,352.319 607.089,350.319 609.5,348.5C 608.978,347.393 608.645,346.226 608.5,345C 609.149,324.477 609.816,303.977 610.5,283.5C 609.853,215.662 609.52,147.662 609.5,79.5C 610.5,79.5 611.5,79.5 612.5,79.5C 612.818,169.849 612.485,260.182 611.5,350.5 Z"/></g>
<g><path style="opacity:0.908" fill="#280525" d="M 18.5,36.5 C 13.634,43.5661 9.80064,51.2327 7,59.5C 6.05548,63.494 5.22215,67.494 4.5,71.5C 3.5009,133.998 3.16756,196.664 3.5,259.5C 2.33465,196.335 2.16798,133.001 3,69.5C 6.38483,60.7161 9.21816,51.7161 11.5,42.5C 14.4732,41.1897 16.8065,39.1897 18.5,36.5 Z"/></g>
<g><path style="opacity:1" fill="#880f6e" d="M 612.5,54.5 C 613.833,56.1667 615.167,57.8333 616.5,59.5C 616.01,63.4872 616.676,67.1538 618.5,70.5C 618.821,164.518 618.488,258.518 617.5,352.5C 616.833,352.5 616.167,352.5 615.5,352.5C 615.372,350.345 615.872,348.345 617,346.5C 617.667,255.833 617.667,165.167 617,74.5C 616.79,72.9419 616.29,71.6085 615.5,70.5C 615.146,64.9609 614.146,59.6275 612.5,54.5 Z"/></g>
<g><path style="opacity:0.581" fill="#1f041e" d="M 11.5,42.5 C 9.21816,51.7161 6.38483,60.7161 3,69.5C 2.16798,133.001 2.33465,196.335 3.5,259.5C 2.8558,285.376 2.18913,311.209 1.5,337C 2.68108,348.24 5.51442,359.073 10,369.5C 12.7484,374.666 15.7484,379.666 19,384.5C 21.3048,386.821 23.8048,388.821 26.5,390.5C 27.4411,392.772 28.7745,394.772 30.5,396.5C 22.8356,391.331 16.669,384.665 12,376.5C 5.50771,364.825 1.34105,352.492 -0.5,339.5C -0.5,339.167 -0.5,338.833 -0.5,338.5C 0.833333,338.167 0.833333,337.833 -0.5,337.5C -0.5,324.167 -0.5,310.833 -0.5,297.5C 0.833333,274.167 0.833333,250.833 -0.5,227.5C -0.5,218.5 -0.5,209.5 -0.5,200.5C 0.833333,198.5 0.833333,196.5 -0.5,194.5C -0.5,194.167 -0.5,193.833 -0.5,193.5C 0.833333,183.5 0.833333,173.5 -0.5,163.5C -0.5,162.833 -0.5,162.167 -0.5,161.5C 0.833333,160.167 0.833333,158.833 -0.5,157.5C -0.5,157.167 -0.5,156.833 -0.5,156.5C 0.833333,154.5 0.833333,152.5 -0.5,150.5C -0.5,150.167 -0.5,149.833 -0.5,149.5C 0.833333,148.833 0.833333,148.167 -0.5,147.5C -0.5,147.167 -0.5,146.833 -0.5,146.5C 0.833333,142.833 0.833333,139.167 -0.5,135.5C -0.5,135.167 -0.5,134.833 -0.5,134.5C 0.833333,126.5 0.833333,118.5 -0.5,110.5C -0.5,110.167 -0.5,109.833 -0.5,109.5C 0.833333,106.833 0.833333,104.167 -0.5,101.5C -0.5,100.167 -0.5,98.8333 -0.5,97.5C 0.269065,84.7278 1.43573,72.0611 3,59.5C 4.81998,53.1931 7.65331,47.5265 11.5,42.5 Z"/></g>
<g><path style="opacity:1" fill="#fdfcfa" d="M 25.5,60.5 C 25.0074,62.8056 24.6741,65.139 24.5,67.5C 23.596,68.209 23.2627,69.209 23.5,70.5C 22.5489,71.9187 22.2155,73.5853 22.5,75.5C 21.1936,78.1418 20.1936,80.9751 19.5,84C 20.1388,137.695 20.1388,191.361 19.5,245C 20.3145,275.481 20.8145,305.981 21,336.5C 21.1489,340.133 21.9823,343.466 23.5,346.5C 23.5,347.167 23.5,347.833 23.5,348.5C 23.5,351.167 23.5,353.833 23.5,356.5C 22.5,356.5 21.5,356.5 20.5,356.5C 18.7261,353.074 17.7261,349.407 17.5,345.5C 17.3333,253.833 17.5,162.166 18,70.5C 18.3173,68.6992 18.984,68.3659 20,69.5C 20.435,64.816 20.935,60.1493 21.5,55.5C 23.5675,54.7372 25.2341,53.4039 26.5,51.5C 26.8333,51.8333 27.1667,52.1667 27.5,52.5C 25.9447,54.943 25.278,57.6097 25.5,60.5 Z"/></g>
<g><path style="opacity:1" fill="#a71e8d" d="M 615.5,70.5 C 616.29,71.6085 616.79,72.9419 617,74.5C 617.667,165.167 617.667,255.833 617,346.5C 615.872,348.345 615.372,350.345 615.5,352.5C 613.17,354.542 612.004,357.208 612,360.5C 611.092,362.439 609.592,363.439 607.5,363.5C 609.604,359.421 610.937,355.088 611.5,350.5C 612.768,348.095 613.435,345.428 613.5,342.5C 614.499,252.668 614.833,162.668 614.5,72.5C 614.328,71.5084 614.662,70.8417 615.5,70.5 Z"/></g>
<g><path style="opacity:1" fill="#790e5f" d="M 12.5,66.5 C 11.5254,157.49 11.1921,248.49 11.5,339.5C 10.3343,250.334 10.1676,161.001 11,71.5C 11.1981,69.6183 11.6981,67.9516 12.5,66.5 Z"/></g>
<g><path style="opacity:1" fill="#250422" d="M 624.5,60.5 C 625.93,63.9609 627.096,67.6276 628,71.5C 628.975,162.245 629.141,252.911 628.5,343.5C 626.764,354.833 622.764,365.167 616.5,374.5C 612.431,378.563 608.764,382.896 605.5,387.5C 608.606,382.392 611.272,377.059 613.5,371.5C 615.763,367.897 618.43,364.564 621.5,361.5C 622.818,358.485 623.818,355.485 624.5,352.5C 625.194,349.579 626.027,346.579 627,343.5C 627.667,253.833 627.667,164.167 627,74.5C 625.637,69.9158 624.803,65.2491 624.5,60.5 Z"/></g>
<g><path style="opacity:1" fill="#fef1fe" d="M 21.5,55.5 C 20.935,60.1493 20.435,64.816 20,69.5C 18.984,68.3659 18.3173,68.6992 18,70.5C 17.5,162.166 17.3333,253.833 17.5,345.5C 16.1684,252.931 16.1684,160.264 17.5,67.5C 18.9238,65.4855 19.5905,63.1522 19.5,60.5C 19.7959,58.597 20.4625,56.9303 21.5,55.5 Z"/></g>
<g><path style="opacity:1" fill="#e341a9" d="M 603.5,60.5 C 605.446,62.734 606.613,65.4006 607,68.5C 607.667,160.833 607.667,253.167 607,345.5C 606.768,346.737 606.268,347.737 605.5,348.5C 606.634,256.841 606.8,165.174 606,73.5C 605.58,69.048 604.747,64.7147 603.5,60.5 Z"/></g>
<g><path style="opacity:1" fill="#3c0735" d="M 33.5,22.5 C 29.2033,27.2979 24.7033,31.9645 20,36.5C 19.3923,38.1545 18.8923,39.8211 18.5,41.5C 17.5596,44.7143 16.0596,47.7143 14,50.5C 12.8566,53.7769 12.0233,57.1102 11.5,60.5C 11.1667,60.5 10.8333,60.5 10.5,60.5C 9.88258,60.6107 9.38258,60.944 9,61.5C 8.00707,65.4423 7.34041,69.4423 7,73.5C 6.17901,165.851 6.34568,258.184 7.5,350.5C 6.59018,348.981 5.75684,347.315 5,345.5C 4.5,254.167 4.33334,162.834 4.5,71.5C 5.22215,67.494 6.05548,63.494 7,59.5C 9.80064,51.2327 13.634,43.5661 18.5,36.5C 21.1824,31.489 24.849,27.489 29.5,24.5C 30.6049,23.3995 31.9382,22.7329 33.5,22.5 Z"/></g>
<g><path style="opacity:1" fill="#ffeafe" d="M 22.5,75.5 C 22.1767,165.855 22.5101,256.189 23.5,346.5C 21.9823,343.466 21.1489,340.133 21,336.5C 20.8145,305.981 20.3145,275.481 19.5,245C 20.1388,191.361 20.1388,137.695 19.5,84C 20.1936,80.9751 21.1936,78.1418 22.5,75.5 Z"/></g>
<g><path style="opacity:1" fill="#fec3f9" d="M 612.5,66.5 C 613.167,68.5 613.833,70.5 614.5,72.5C 614.833,162.668 614.499,252.668 613.5,342.5C 613.813,250.488 613.48,158.488 612.5,66.5 Z"/></g>
<g><path style="opacity:1" fill="#3b0635" d="M 550.5,5.5 C 550.5,5.16667 550.5,4.83333 550.5,4.5C 556.529,4.42547 562.529,4.7588 568.5,5.5C 575.128,6.31595 580.795,8.98262 585.5,13.5C 595.277,17.7793 603.444,24.1126 610,32.5C 612.666,36.833 614.499,41.4996 615.5,46.5C 616.48,49.1161 617.98,51.4494 620,53.5C 620.928,58.9471 622.261,64.2804 624,69.5C 624.5,163.833 624.667,258.166 624.5,352.5C 623.818,355.485 622.818,358.485 621.5,361.5C 618.43,364.564 615.763,367.897 613.5,371.5C 614.337,365.978 616.337,360.978 619.5,356.5C 621.067,355.319 621.901,353.653 622,351.5C 622.333,348.5 622.667,345.5 623,342.5C 623.832,252.666 623.666,162.999 622.5,73.5C 620.845,67.2139 619.345,60.8805 618,54.5C 617.051,52.9069 615.885,51.5736 614.5,50.5C 614.5,49.8333 614.167,49.5 613.5,49.5C 612.977,46.1102 612.143,42.7769 611,39.5C 609.363,37.1898 607.196,35.6898 604.5,35C 603.107,33.8289 602.273,32.3289 602,30.5C 590.348,18.0835 576.181,10.4169 559.5,7.5C 559.389,6.88258 559.056,6.38258 558.5,6C 555.854,5.50258 553.187,5.33591 550.5,5.5 Z"/></g>
<g><path style="opacity:1" fill="#f333bb" d="M 27.5,73.5 C 25.9202,79.2936 26.2536,84.9602 28.5,90.5C 27.0683,96.9001 26.4016,103.4 26.5,110C 27.3925,137.309 27.0592,164.642 25.5,192C 26.1371,196.515 26.8038,201.015 27.5,205.5C 27.4025,251.069 27.0691,296.569 26.5,342C 26.9271,347.87 27.5937,353.703 28.5,359.5C 27.0687,358.22 26.4021,356.553 26.5,354.5C 25.1424,348.935 24.309,343.268 24,337.5C 23.5,248.501 23.3333,159.501 23.5,70.5C 23.2627,69.209 23.596,68.209 24.5,67.5C 25.1174,67.3893 25.6174,67.056 26,66.5C 26.2904,68.9204 26.7904,71.2537 27.5,73.5 Z"/></g>
<g><path style="opacity:1" fill="#550847" d="M 614.5,50.5 C 615.885,51.5736 617.051,52.9069 618,54.5C 619.345,60.8805 620.845,67.2139 622.5,73.5C 622.833,162.668 622.499,251.668 621.5,340.5C 621.667,251.166 621.5,161.833 621,72.5C 619.962,67.8811 618.462,63.5477 616.5,59.5C 616.244,56.4021 615.578,53.4021 614.5,50.5 Z"/></g>
<g><path style="opacity:1" fill="#60094e" d="M 616.5,59.5 C 618.462,63.5477 619.962,67.8811 621,72.5C 621.5,161.833 621.667,251.166 621.5,340.5C 621.635,345.953 620.968,351.286 619.5,356.5C 616.337,360.978 614.337,365.978 613.5,371.5C 610.956,372.708 609.622,374.708 609.5,377.5C 605.518,380.152 601.851,383.152 598.5,386.5C 603.412,379.017 608.579,371.684 614,364.5C 615.541,360.518 616.708,356.518 617.5,352.5C 618.117,352.389 618.617,352.056 619,351.5C 619.333,347.833 619.667,344.167 620,340.5C 620.667,251.5 620.667,162.5 620,73.5C 619.768,72.2625 619.268,71.2625 618.5,70.5C 616.676,67.1538 616.01,63.4872 616.5,59.5 Z"/></g>
<g><path style="opacity:1" fill="#720c59" d="M 618.5,70.5 C 619.268,71.2625 619.768,72.2625 620,73.5C 620.667,162.5 620.667,251.5 620,340.5C 619.667,344.167 619.333,347.833 619,351.5C 618.617,352.056 618.117,352.389 617.5,352.5C 618.488,258.518 618.821,164.518 618.5,70.5 Z"/></g>
<g><path style="opacity:1" fill="#500945" d="M 10.5,60.5 C 10.4476,64.1981 10.1143,67.8648 9.5,71.5C 8.33424,163.666 8.16757,255.999 9,348.5C 9.23209,349.737 9.73209,350.737 10.5,351.5C 12.9547,355.751 15.288,360.084 17.5,364.5C 22.0536,371.576 26.8869,378.576 32,385.5C 35.0396,388.378 38.2062,391.044 41.5,393.5C 45.4066,397.526 49.7399,400.859 54.5,403.5C 51.0382,402.847 47.8715,401.513 45,399.5C 40.1386,395.962 35.3053,392.462 30.5,389C 29.3824,385.645 27.8824,382.478 26,379.5C 22.4373,378.109 19.604,375.775 17.5,372.5C 16.248,368.322 14.248,364.655 11.5,361.5C 10.9178,357.468 9.58448,353.801 7.5,350.5C 6.34568,258.184 6.17901,165.851 7,73.5C 7.34041,69.4423 8.00707,65.4423 9,61.5C 9.38258,60.944 9.88258,60.6107 10.5,60.5 Z"/></g>
<g><path style="opacity:1" fill="#5d0b4e" d="M 9.5,71.5 C 9.17885,164.851 9.51219,258.185 10.5,351.5C 9.73209,350.737 9.23209,349.737 9,348.5C 8.16757,255.999 8.33424,163.666 9.5,71.5 Z"/></g>
<g><path style="opacity:1" fill="#87116c" d="M 13.5,65.5 C 13.3333,159.834 13.5,254.167 14,348.5C 16.8016,355.903 19.8016,363.236 23,370.5C 27.4161,375.079 31.2495,380.079 34.5,385.5C 38.8212,388.802 43.1546,391.802 47.5,394.5C 45.5648,393.85 43.5648,393.517 41.5,393.5C 38.2062,391.044 35.0396,388.378 32,385.5C 26.8869,378.576 22.0536,371.576 17.5,364.5C 17.477,362.073 16.977,359.74 16,357.5C 12.5455,352.082 11.0455,346.082 11.5,339.5C 11.1921,248.49 11.5254,157.49 12.5,66.5C 12.5,65.8333 12.8333,65.5 13.5,65.5 Z"/></g>
<g><path style="opacity:1" fill="#2e052b" d="M 615.5,46.5 C 617.56,47.2152 619.226,48.5486 620.5,50.5C 621.27,54.1616 622.603,57.495 624.5,60.5C 624.803,65.2491 625.637,69.9158 627,74.5C 627.667,164.167 627.667,253.833 627,343.5C 626.027,346.579 625.194,349.579 624.5,352.5C 624.667,258.166 624.5,163.833 624,69.5C 622.261,64.2804 620.928,58.9471 620,53.5C 617.98,51.4494 616.48,49.1161 615.5,46.5 Z"/></g>
<g><path style="opacity:1" fill="#db4bb9" d="M 23.5,70.5 C 23.3333,159.501 23.5,248.501 24,337.5C 24.309,343.268 25.1424,348.935 26.5,354.5C 25.2028,352.629 24.2028,350.629 23.5,348.5C 23.5,347.833 23.5,347.167 23.5,346.5C 22.5101,256.189 22.1767,165.855 22.5,75.5C 22.2155,73.5853 22.5489,71.9187 23.5,70.5 Z"/></g>
<g><path style="opacity:1" fill="#fdf3fc" d="M 23.5,348.5 C 24.2028,350.629 25.2028,352.629 26.5,354.5C 26.4021,356.553 27.0687,358.22 28.5,359.5C 32.1375,367.767 37.4709,374.767 44.5,380.5C 49.6892,384.926 55.3558,388.593 61.5,391.5C 59.3352,391.116 57.6685,391.783 56.5,393.5C 58.8263,394.145 60.493,395.478 61.5,397.5C 59.2543,396.545 56.921,395.878 54.5,395.5C 38.187,386.853 26.8537,373.853 20.5,356.5C 21.5,356.5 22.5,356.5 23.5,356.5C 23.5,353.833 23.5,351.167 23.5,348.5 Z"/></g>
<g><path style="opacity:1" fill="#2c0628" d="M 4.5,71.5 C 4.33334,162.834 4.5,254.167 5,345.5C 5.75684,347.315 6.59018,348.981 7.5,350.5C 9.58448,353.801 10.9178,357.468 11.5,361.5C 12.7979,369.028 15.4645,376.028 19.5,382.5C 20.6888,383.429 22.0222,383.762 23.5,383.5C 23.1496,386.453 24.1496,388.787 26.5,390.5C 23.8048,388.821 21.3048,386.821 19,384.5C 15.7484,379.666 12.7484,374.666 10,369.5C 5.51442,359.073 2.68108,348.24 1.5,337C 2.18913,311.209 2.8558,285.376 3.5,259.5C 3.16756,196.664 3.5009,133.998 4.5,71.5 Z"/></g>
<g><path style="opacity:1" fill="#740d60" d="M 615.5,352.5 C 616.167,352.5 616.833,352.5 617.5,352.5C 616.708,356.518 615.541,360.518 614,364.5C 608.579,371.684 603.412,379.017 598.5,386.5C 595.143,389.855 591.476,392.855 587.5,395.5C 582.831,397.838 577.831,399.171 572.5,399.5C 576.686,397.257 581.019,395.09 585.5,393C 587.417,390.577 589.75,388.744 592.5,387.5C 596.208,384.873 599.708,381.873 603,378.5C 605.59,372.981 608.924,367.981 613,363.5C 614.31,359.93 615.143,356.263 615.5,352.5 Z"/></g>
<g><path style="opacity:1" fill="#b03396" d="M 602.5,372.5 C 601.732,378.431 598.566,382.431 593,384.5C 592.517,385.448 592.351,386.448 592.5,387.5C 589.75,388.744 587.417,390.577 585.5,393C 581.019,395.09 576.686,397.257 572.5,399.5C 571.833,399.5 571.167,399.5 570.5,399.5C 569.833,399.5 569.167,399.5 568.5,399.5C 565.833,399.833 563.167,400.167 560.5,400.5C 563.567,399.317 566.567,397.983 569.5,396.5C 582.767,391.692 593.767,383.692 602.5,372.5 Z"/></g>
<g><path style="opacity:1" fill="#96177c" d="M 615.5,352.5 C 615.143,356.263 614.31,359.93 613,363.5C 608.924,367.981 605.59,372.981 603,378.5C 599.708,381.873 596.208,384.873 592.5,387.5C 592.351,386.448 592.517,385.448 593,384.5C 598.566,382.431 601.732,378.431 602.5,372.5C 603.931,369.299 605.597,366.299 607.5,363.5C 609.592,363.439 611.092,362.439 612,360.5C 612.004,357.208 613.17,354.542 615.5,352.5 Z"/></g>
<g><path style="opacity:1" fill="#3a0734" d="M 613.5,371.5 C 611.272,377.059 608.606,382.392 605.5,387.5C 598.276,390.308 592.276,394.808 587.5,401C 583.556,403.639 579.222,405.139 574.5,405.5C 582.23,402.785 588.897,398.285 594.5,392C 597.071,391.099 599.404,389.766 601.5,388C 603.587,384.077 606.254,380.577 609.5,377.5C 609.622,374.708 610.956,372.708 613.5,371.5 Z"/></g>
<g><path style="opacity:1" fill="#fef4fc" d="M 61.5,391.5 C 66.5026,392.834 71.5026,394.168 76.5,395.5C 179.999,396.333 283.666,396.833 387.5,397C 388.044,397.717 388.711,398.217 389.5,398.5C 390.674,399.514 391.34,400.847 391.5,402.5C 392.038,404.117 392.371,405.784 392.5,407.5C 390.282,407.386 388.282,406.72 386.5,405.5C 386.167,405.5 385.833,405.5 385.5,405.5C 385.461,404.417 385.127,403.417 384.5,402.5C 282.169,401.5 179.836,401.167 77.5,401.5C 75.5,401.167 73.5,400.833 71.5,400.5C 68.4954,398.723 65.1621,397.723 61.5,397.5C 60.493,395.478 58.8263,394.145 56.5,393.5C 57.6685,391.783 59.3352,391.116 61.5,391.5 Z"/></g>
<g><path style="opacity:1" fill="#fef4fc" d="M 569.5,396.5 C 566.567,397.983 563.567,399.317 560.5,400.5C 535.516,401.275 510.516,401.775 485.5,402C 484.023,403.812 482.69,405.645 481.5,407.5C 480.244,407.904 479.077,408.571 478,409.5C 477.5,409.167 477,408.833 476.5,408.5C 478.27,407.18 478.603,405.68 477.5,404C 478.253,402.513 479.086,402.346 480,403.5C 480.494,401.866 480.66,400.199 480.5,398.5C 480.414,397.504 480.748,396.671 481.5,396C 505.167,395.667 528.833,395.333 552.5,395C 557.609,394.146 562.609,392.979 567.5,391.5C 569.861,391.326 572.194,390.993 574.5,390.5C 574.5,391.5 574.5,392.5 574.5,393.5C 571.715,392.916 570.048,393.916 569.5,396.5 Z"/></g>
<g><path style="opacity:1" fill="#f649bc" d="M 599.5,364.5 C 591.817,377.194 581.151,386.194 567.5,391.5C 562.609,392.979 557.609,394.146 552.5,395C 528.833,395.333 505.167,395.667 481.5,396C 480.748,396.671 480.414,397.504 480.5,398.5C 476.339,403.486 472.673,408.819 469.5,414.5C 469.64,412.876 468.973,411.71 467.5,411C 469.452,408.145 470.619,404.978 471,401.5C 472.316,398.972 473.483,398.972 474.5,401.5C 475.731,400.349 475.731,399.183 474.5,398C 478.129,396.026 481.296,393.526 484,390.5C 485,390.167 486,389.833 487,389.5C 488.73,391.665 490.73,391.999 493,390.5C 499.462,393.168 505.462,392.835 511,389.5C 514.358,391.502 518.025,392.502 522,392.5C 534.818,391.384 547.652,391.384 560.5,392.5C 562.62,391.597 562.954,390.263 561.5,388.5C 565.062,385.808 569.062,383.975 573.5,383C 572.396,381.869 572.729,381.035 574.5,380.5C 575.451,381.326 576.451,381.492 577.5,381C 583.211,374.947 588.377,369.114 593,363.5C 595.041,364.423 597.208,364.756 599.5,364.5 Z"/></g>
<g><path style="opacity:1" fill="#f35cba" d="M 386.5,395.5 C 283.167,395.5 179.833,395.5 76.5,395.5C 71.5026,394.168 66.5026,392.834 61.5,391.5C 55.3558,388.593 49.6892,384.926 44.5,380.5C 48.7703,377.65 50.7703,378.984 50.5,384.5C 53.1441,384.16 55.4775,384.827 57.5,386.5C 60.3071,384.255 62.9738,384.255 65.5,386.5C 65.2907,387.086 64.9574,387.586 64.5,388C 66.2666,390.39 68.5999,392.057 71.5,393C 175.833,393.333 280.167,393.667 384.5,394C 385.416,394.278 386.082,394.778 386.5,395.5 Z"/></g>
<g><path style="opacity:1" fill="#fdf4fe" d="M 76.5,395.5 C 179.833,395.5 283.167,395.5 386.5,395.5C 387.167,395.5 387.833,395.5 388.5,395.5C 389.11,396.391 389.443,397.391 389.5,398.5C 388.711,398.217 388.044,397.717 387.5,397C 283.666,396.833 179.999,396.333 76.5,395.5 Z"/></g>
<g><path style="opacity:1" fill="#4d0844" d="M 609.5,377.5 C 606.254,380.577 603.587,384.077 601.5,388C 599.404,389.766 597.071,391.099 594.5,392C 588.897,398.285 582.23,402.785 574.5,405.5C 568.206,407.096 561.873,408.596 555.5,410C 535.5,410.333 515.5,410.667 495.5,411C 492.084,412.581 489.084,414.748 486.5,417.5C 488.015,413.82 490.681,411.32 494.5,410C 515.183,409.768 535.849,409.101 556.5,408C 564.747,405.042 573.08,402.375 581.5,400C 584.106,399.208 586.106,397.708 587.5,395.5C 591.476,392.855 595.143,389.855 598.5,386.5C 601.851,383.152 605.518,380.152 609.5,377.5 Z"/></g>
<g><path style="opacity:1" fill="#fbc2ef" d="M 61.5,397.5 C 65.1621,397.723 68.4954,398.723 71.5,400.5C 67.8379,400.277 64.5046,399.277 61.5,397.5 Z"/></g>
<g><path style="opacity:0.635" fill="#240422" d="M 26.5,390.5 C 29.3733,392.983 32.3733,395.483 35.5,398C 38.6572,399.578 41.9906,400.578 45.5,401C 47.7075,402.047 49.3742,403.547 50.5,405.5C 54.6709,406.011 58.0042,408.011 60.5,411.5C 54.7746,410.481 49.4413,408.481 44.5,405.5C 39.1454,403.494 34.4787,400.494 30.5,396.5C 28.7745,394.772 27.4411,392.772 26.5,390.5 Z"/></g>
<g><path style="opacity:1" fill="#be3d9a" d="M 77.5,401.5 C 179.836,401.167 282.169,401.5 384.5,402.5C 385.127,403.417 385.461,404.417 385.5,405.5C 384.522,405.189 383.855,404.522 383.5,403.5C 281.334,402.833 179.334,402.167 77.5,401.5 Z"/></g>
<g><path style="opacity:1" fill="#a91685" d="M 54.5,395.5 C 56.921,395.878 59.2543,396.545 61.5,397.5C 64.5046,399.277 67.8379,400.277 71.5,400.5C 73.5,400.833 75.5,401.167 77.5,401.5C 179.334,402.167 281.334,402.833 383.5,403.5C 383.855,404.522 384.522,405.189 385.5,405.5C 385.833,405.5 386.167,405.5 386.5,405.5C 392.86,415.518 399.193,425.518 405.5,435.5C 403.289,434.877 401.289,433.877 399.5,432.5C 396.908,426.304 393.575,420.637 389.5,415.5C 388.167,414.833 387.167,413.833 386.5,412.5C 385.996,409.575 384.663,407.075 382.5,405C 281.167,404.5 179.834,404.333 78.5,404.5C 73.5783,403.72 68.5783,402.72 63.5,401.5C 59.7878,399.663 56.7878,397.663 54.5,395.5 Z"/></g>
<g><path style="opacity:1" fill="#8e0f71" d="M 78.5,404.5 C 179.834,404.333 281.167,404.5 382.5,405C 384.663,407.075 385.996,409.575 386.5,412.5C 383.043,411.949 381.376,409.949 381.5,406.5C 280.354,405.842 179.354,405.176 78.5,404.5 Z"/></g>
<g><path style="opacity:1" fill="#850e6a" d="M 568.5,399.5 C 569.167,399.5 569.833,399.5 570.5,399.5C 568.88,401.984 566.547,403.484 563.5,404C 558.833,404.667 554.167,405.333 549.5,406C 530.833,406.333 512.167,406.667 493.5,407C 490.098,408.4 487.264,410.567 485,413.5C 476.438,428.279 467.105,442.612 457,456.5C 454.822,464.203 450.655,470.536 444.5,475.5C 445.075,473.589 446.075,471.922 447.5,470.5C 449.352,464.474 452.519,459.14 457,454.5C 461.451,445.047 467.118,436.38 474,428.5C 474.192,426.423 474.692,424.423 475.5,422.5C 479.811,416.721 484.477,411.221 489.5,406C 511.479,404.815 533.479,404.148 555.5,404C 560.533,404.133 564.866,402.633 568.5,399.5 Z"/></g>
<g><path style="opacity:0.281" fill="#1f031c" d="M 616.5,374.5 C 615.334,378.84 613.501,382.84 611,386.5C 606.798,390.367 602.965,394.533 599.5,399C 592.96,402.851 586.294,406.517 579.5,410C 573.244,412.541 566.91,414.374 560.5,415.5C 544.891,416.25 529.224,416.916 513.5,417.5C 507.179,415.941 500.846,415.607 494.5,416.5C 494.611,415.883 494.944,415.383 495.5,415C 520.212,414.38 544.878,413.38 569.5,412C 576.616,409.275 583.616,406.275 590.5,403C 594.362,398.476 598.862,394.642 604,391.5C 604.41,390.099 604.91,388.766 605.5,387.5C 608.764,382.896 612.431,378.563 616.5,374.5 Z"/></g>
<g><path style="opacity:1" fill="#720d5c" d="M 53.5,398.5 C 56.6592,400.08 59.9925,401.08 63.5,401.5C 68.5783,402.72 73.5783,403.72 78.5,404.5C 179.354,405.176 280.354,405.842 381.5,406.5C 381.376,409.949 383.043,411.949 386.5,412.5C 387.167,413.833 388.167,414.833 389.5,415.5C 391.695,420.89 394.195,426.223 397,431.5C 397.671,432.252 398.504,432.586 399.5,432.5C 402.077,437.594 404.911,442.594 408,447.5C 413.445,452.713 417.112,459.046 419,466.5C 421.761,469.714 424.261,473.047 426.5,476.5C 424.246,475.585 422.246,474.252 420.5,472.5C 418.221,467.587 415.221,463.254 411.5,459.5C 405.868,451.594 400.702,443.261 396,434.5C 393.96,432.63 392.127,430.63 390.5,428.5C 388.047,418.711 382.047,412.044 372.5,408.5C 273.668,407.667 174.668,407.167 75.5,407C 68.8071,405.269 62.1404,403.436 55.5,401.5C 54.3881,400.735 53.7214,399.735 53.5,398.5 Z"/></g>
<g><path style="opacity:1" fill="#600a4f" d="M 41.5,393.5 C 43.5648,393.517 45.5648,393.85 47.5,394.5C 48.1216,397.776 50.1216,399.109 53.5,398.5C 53.7214,399.735 54.3881,400.735 55.5,401.5C 62.1404,403.436 68.8071,405.269 75.5,407C 174.668,407.167 273.668,407.667 372.5,408.5C 273.5,408.5 174.5,408.5 75.5,408.5C 72.8127,408.664 70.146,408.497 67.5,408C 63.4319,405.733 59.0985,404.233 54.5,403.5C 49.7399,400.859 45.4066,397.526 41.5,393.5 Z"/></g>
<g><path style="opacity:1" fill="#fdecfb" d="M 480.5,398.5 C 480.66,400.199 480.494,401.866 480,403.5C 479.086,402.346 478.253,402.513 477.5,404C 478.603,405.68 478.27,407.18 476.5,408.5C 477,408.833 477.5,409.167 478,409.5C 479.077,408.571 480.244,407.904 481.5,407.5C 479.403,411.372 477.069,415.039 474.5,418.5C 475.363,416.105 475.363,413.771 474.5,411.5C 472.085,414.238 469.752,416.905 467.5,419.5C 467.893,417.716 468.559,416.05 469.5,414.5C 472.673,408.819 476.339,403.486 480.5,398.5 Z"/></g>
<g><path style="opacity:1" fill="#510746" d="M 75.5,408.5 C 174.5,408.5 273.5,408.5 372.5,408.5C 382.047,412.044 388.047,418.711 390.5,428.5C 387.531,424.834 384.864,420.834 382.5,416.5C 380.26,414.101 377.593,412.268 374.5,411C 279.5,410.667 184.5,410.333 89.5,410C 84.6486,409.826 79.9819,409.326 75.5,408.5 Z"/></g>
<g><path style="opacity:1" fill="#3d0638" d="M 574.5,405.5 C 569.559,407.633 564.559,409.8 559.5,412C 537.5,412.333 515.5,412.667 493.5,413C 489.873,416.779 486.54,420.612 483.5,424.5C 483.925,421.881 484.925,419.547 486.5,417.5C 489.084,414.748 492.084,412.581 495.5,411C 515.5,410.667 535.5,410.333 555.5,410C 561.873,408.596 568.206,407.096 574.5,405.5 Z"/></g>
<g><path style="opacity:1" fill="#3b0635" d="M 11.5,361.5 C 14.248,364.655 16.248,368.322 17.5,372.5C 19.604,375.775 22.4373,378.109 26,379.5C 27.8824,382.478 29.3824,385.645 30.5,389C 35.3053,392.462 40.1386,395.962 45,399.5C 47.8715,401.513 51.0382,402.847 54.5,403.5C 59.0985,404.233 63.4319,405.733 67.5,408C 70.146,408.497 72.8127,408.664 75.5,408.5C 79.9819,409.326 84.6486,409.826 89.5,410C 184.5,410.333 279.5,410.667 374.5,411C 377.593,412.268 380.26,414.101 382.5,416.5C 384.864,420.834 387.531,424.834 390.5,428.5C 392.127,430.63 393.96,432.63 396,434.5C 400.702,443.261 405.868,451.594 411.5,459.5C 410.923,462.55 412.09,464.55 415,465.5C 417.098,470.033 419.431,474.366 422,478.5C 424.114,481.121 426.614,483.121 429.5,484.5C 427.345,484.628 425.345,484.128 423.5,483C 420.219,479.559 417.552,475.726 415.5,471.5C 414.675,470.614 413.675,470.281 412.5,470.5C 412.66,468.801 412.494,467.134 412,465.5C 407.985,463.801 405.651,460.801 405,456.5C 403.621,454.285 401.787,452.619 399.5,451.5C 395.929,445.409 392.095,439.409 388,433.5C 387.648,431.753 387.148,430.086 386.5,428.5C 385.312,422.93 382.312,418.764 377.5,416C 376.833,415 376.167,414 375.5,413C 280.833,412.667 186.167,412.333 91.5,412C 81.098,411.704 70.7646,410.704 60.5,409C 57.9296,405.882 54.5963,404.715 50.5,405.5C 49.3742,403.547 47.7075,402.047 45.5,401C 41.9906,400.578 38.6572,399.578 35.5,398C 32.3733,395.483 29.3733,392.983 26.5,390.5C 24.1496,388.787 23.1496,386.453 23.5,383.5C 22.0222,383.762 20.6888,383.429 19.5,382.5C 15.4645,376.028 12.7979,369.028 11.5,361.5 Z"/></g>
<g><path style="opacity:1" fill="#2f052b" d="M 50.5,405.5 C 54.5963,404.715 57.9296,405.882 60.5,409C 70.7646,410.704 81.098,411.704 91.5,412C 186.167,412.333 280.833,412.667 375.5,413C 376.167,414 376.833,415 377.5,416C 382.312,418.764 385.312,422.93 386.5,428.5C 382.828,426.204 380.328,422.871 379,418.5C 376.833,417.667 375.333,416.167 374.5,414C 274.833,413.667 175.167,413.333 75.5,413C 70.5518,411.95 65.5518,411.45 60.5,411.5C 58.0042,408.011 54.6709,406.011 50.5,405.5 Z"/></g>
<g><path style="opacity:0.986" fill="#2d0528" d="M 605.5,387.5 C 604.91,388.766 604.41,390.099 604,391.5C 598.862,394.642 594.362,398.476 590.5,403C 583.616,406.275 576.616,409.275 569.5,412C 544.878,413.38 520.212,414.38 495.5,415C 494.944,415.383 494.611,415.883 494.5,416.5C 492.343,419.632 490.01,422.632 487.5,425.5C 483.779,429.888 480.445,434.555 477.5,439.5C 479.802,434.572 481.802,429.572 483.5,424.5C 486.54,420.612 489.873,416.779 493.5,413C 515.5,412.667 537.5,412.333 559.5,412C 564.559,409.8 569.559,407.633 574.5,405.5C 579.222,405.139 583.556,403.639 587.5,401C 592.276,394.808 598.276,390.308 605.5,387.5 Z"/></g>
<g><path style="opacity:0.972" fill="#1b021a" d="M 44.5,405.5 C 49.4413,408.481 54.7746,410.481 60.5,411.5C 69.5717,413.627 78.9051,414.794 88.5,415C 183.167,415.333 277.833,415.667 372.5,416C 374.286,416.785 375.786,417.951 377,419.5C 383.176,427.858 388.843,436.525 394,445.5C 395.617,447.763 397.45,449.763 399.5,451.5C 403.051,458.551 407.218,465.218 412,471.5C 412.483,472.448 412.649,473.448 412.5,474.5C 401.513,458.537 390.513,442.537 379.5,426.5C 377.888,423.462 375.888,420.629 373.5,418C 367.692,417.206 361.858,416.706 356,416.5C 277.076,416.828 198.243,417.161 119.5,417.5C 98.0503,417.208 76.717,415.541 55.5,412.5C 51.322,410.914 47.6554,408.581 44.5,405.5 Z"/></g>
<g><path style="opacity:1" fill="#240421" d="M 60.5,411.5 C 65.5518,411.45 70.5518,411.95 75.5,413C 175.167,413.333 274.833,413.667 374.5,414C 375.333,416.167 376.833,417.667 379,418.5C 380.328,422.871 382.828,426.204 386.5,428.5C 387.148,430.086 387.648,431.753 388,433.5C 392.095,439.409 395.929,445.409 399.5,451.5C 397.45,449.763 395.617,447.763 394,445.5C 388.843,436.525 383.176,427.858 377,419.5C 375.786,417.951 374.286,416.785 372.5,416C 277.833,415.667 183.167,415.333 88.5,415C 78.9051,414.794 69.5717,413.627 60.5,411.5 Z"/></g>
<g><path style="opacity:0.861" fill="#160214" d="M 55.5,412.5 C 76.717,415.541 98.0503,417.208 119.5,417.5C 198.243,417.161 277.076,416.828 356,416.5C 361.858,416.706 367.692,417.206 373.5,418C 375.888,420.629 377.888,423.462 379.5,426.5C 377.833,425.5 376.5,424.167 375.5,422.5C 374.657,420.827 373.324,419.66 371.5,419C 271.73,418.79 172.063,418.29 72.5,417.5C 66.3167,417.209 60.6501,415.542 55.5,412.5 Z"/></g>
<g><path style="opacity:0.242" fill="#10000f" d="M 72.5,417.5 C 172.063,418.29 271.73,418.79 371.5,419C 373.324,419.66 374.657,420.827 375.5,422.5C 373.33,421.251 370.996,420.251 368.5,419.5C 328.763,420.091 289.43,420.091 250.5,419.5C 242.361,420.534 234.194,421.534 226,422.5C 207.063,422.261 187.73,421.595 168,420.5C 154.886,422.367 141.72,423.034 128.5,422.5C 118.367,421.169 108.201,420.169 98,419.5C 89.5774,420.31 81.0774,419.644 72.5,417.5 Z"/></g>
<g><path style="opacity:1" fill="#f63dbb" d="M 388.5,395.5 C 391.099,395.549 393.266,396.549 395,398.5C 395.311,399.742 394.811,400.742 393.5,401.5C 395.031,405.204 396.864,405.204 399,401.5C 399.915,402.328 400.581,403.328 401,404.5C 401.333,404.167 401.667,403.833 402,403.5C 402.438,406.376 403.438,409.043 405,411.5C 406.019,410.313 407.186,409.313 408.5,408.5C 409.834,410.818 409.168,412.485 406.5,413.5C 407.154,415.115 407.654,416.782 408,418.5C 409.113,417.289 410.28,417.289 411.5,418.5C 412.918,423.05 415.918,426.05 420.5,427.5C 421.024,430.095 421.024,432.761 420.5,435.5C 421.552,435.351 422.552,435.517 423.5,436C 423.167,436.333 422.833,436.667 422.5,437C 423.5,437.833 424.5,438.667 425.5,439.5C 424.384,439.402 423.384,439.902 422.5,441C 422.938,442.92 423.605,444.754 424.5,446.5C 425.833,447.167 426.833,448.167 427.5,449.5C 426.513,453.367 427.013,453.367 429,449.5C 430.469,452.584 432.302,455.417 434.5,458C 437.082,457.745 439.748,457.578 442.5,457.5C 440.638,461.542 438.138,465.208 435,468.5C 434.667,468.167 434.333,467.833 434,467.5C 419.809,445.768 405.643,424.102 391.5,402.5C 391.34,400.847 390.674,399.514 389.5,398.5C 389.443,397.391 389.11,396.391 388.5,395.5 Z"/></g>
<g><path style="opacity:1" fill="#fef2fb" d="M 391.5,402.5 C 405.643,424.102 419.809,445.768 434,467.5C 434.333,467.833 434.667,468.167 435,468.5C 438.138,465.208 440.638,461.542 442.5,457.5C 450.833,444.833 459.167,432.167 467.5,419.5C 469.752,416.905 472.085,414.238 474.5,411.5C 475.363,413.771 475.363,416.105 474.5,418.5C 463.075,436.589 452.075,454.922 441.5,473.5C 440.038,474.458 438.705,475.624 437.5,477C 435.888,477.72 434.388,477.554 433,476.5C 423.81,462.768 414.643,449.101 405.5,435.5C 399.193,425.518 392.86,415.518 386.5,405.5C 388.282,406.72 390.282,407.386 392.5,407.5C 392.371,405.784 392.038,404.117 391.5,402.5 Z"/></g>
<g><path style="opacity:1" fill="#ae288f" d="M 568.5,399.5 C 564.866,402.633 560.533,404.133 555.5,404C 533.479,404.148 511.479,404.815 489.5,406C 484.477,411.221 479.811,416.721 475.5,422.5C 474.692,424.423 474.192,426.423 474,428.5C 467.118,436.38 461.451,445.047 457,454.5C 452.519,459.14 449.352,464.474 447.5,470.5C 446.504,470.586 445.671,470.252 445,469.5C 444.26,471.319 443.093,472.652 441.5,473.5C 452.075,454.922 463.075,436.589 474.5,418.5C 477.069,415.039 479.403,411.372 481.5,407.5C 482.69,405.645 484.023,403.812 485.5,402C 510.516,401.775 535.516,401.275 560.5,400.5C 563.167,400.167 565.833,399.833 568.5,399.5 Z"/></g>
<g><path style="opacity:1" fill="#8f127b" d="M 389.5,415.5 C 393.575,420.637 396.908,426.304 399.5,432.5C 398.504,432.586 397.671,432.252 397,431.5C 394.195,426.223 391.695,420.89 389.5,415.5 Z"/></g>
<g><path style="opacity:1" fill="#520a45" d="M 482.5,424.5 C 480.7,426.828 479.533,429.495 479,432.5C 478,433.167 477,433.833 476,434.5C 471.467,441.588 466.967,448.588 462.5,455.5C 463.049,453.099 463.882,450.765 465,448.5C 468.086,444.417 470.752,440.083 473,435.5C 476.184,431.762 479.351,428.095 482.5,424.5 Z"/></g>
<g><path style="opacity:1" fill="#9d1e85" d="M 399.5,432.5 C 401.289,433.877 403.289,434.877 405.5,435.5C 414.643,449.101 423.81,462.768 433,476.5C 434.388,477.554 435.888,477.72 437.5,477C 438.705,475.624 440.038,474.458 441.5,473.5C 443.093,472.652 444.26,471.319 445,469.5C 445.671,470.252 446.504,470.586 447.5,470.5C 446.075,471.922 445.075,473.589 444.5,475.5C 442.833,477.833 440.833,479.833 438.5,481.5C 433.72,481.723 429.72,480.056 426.5,476.5C 424.261,473.047 421.761,469.714 419,466.5C 417.112,459.046 413.445,452.713 408,447.5C 404.911,442.594 402.077,437.594 399.5,432.5 Z"/></g>
<g><path style="opacity:0.127" fill="#190218" d="M 513.5,417.5 C 508.015,418.327 502.348,418.827 496.5,419C 488.373,430.748 480.873,442.915 474,455.5C 466.753,465.66 459.753,475.994 453,486.5C 449.025,490.069 444.525,492.403 439.5,493.5C 438.167,493.5 436.833,493.5 435.5,493.5C 435.167,492.167 434.833,492.167 434.5,493.5C 434.167,493.5 433.833,493.5 433.5,493.5C 423.729,490.403 416.729,484.07 412.5,474.5C 414.887,476.913 417.054,479.58 419,482.5C 420.73,484.076 422.563,485.41 424.5,486.5C 424.937,488.074 425.937,489.241 427.5,490C 434.552,491.446 441.552,490.779 448.5,488C 454.622,477.895 461.456,468.395 469,459.5C 469.438,456.624 470.438,453.957 472,451.5C 476.974,444.243 481.974,436.91 487,429.5C 487.49,428.207 487.657,426.873 487.5,425.5C 490.01,422.632 492.343,419.632 494.5,416.5C 500.846,415.607 507.179,415.941 513.5,417.5 Z"/></g>
<g><path style="opacity:1" fill="#670c55" d="M 587.5,395.5 C 586.106,397.708 584.106,399.208 581.5,400C 573.08,402.375 564.747,405.042 556.5,408C 535.849,409.101 515.183,409.768 494.5,410C 490.681,411.32 488.015,413.82 486.5,417.5C 484.925,419.547 483.925,421.881 483.5,424.5C 483.167,424.5 482.833,424.5 482.5,424.5C 479.351,428.095 476.184,431.762 473,435.5C 470.752,440.083 468.086,444.417 465,448.5C 463.882,450.765 463.049,453.099 462.5,455.5C 459.672,456.854 458.172,459.187 458,462.5C 455.675,464.501 453.842,466.834 452.5,469.5C 449.285,472.553 446.618,476.053 444.5,480C 442.655,481.128 440.655,481.628 438.5,481.5C 440.833,479.833 442.833,477.833 444.5,475.5C 450.655,470.536 454.822,464.203 457,456.5C 467.105,442.612 476.438,428.279 485,413.5C 487.264,410.567 490.098,408.4 493.5,407C 512.167,406.667 530.833,406.333 549.5,406C 554.167,405.333 558.833,404.667 563.5,404C 566.547,403.484 568.88,401.984 570.5,399.5C 571.167,399.5 571.833,399.5 572.5,399.5C 577.831,399.171 582.831,397.838 587.5,395.5 Z"/></g>
<g><path style="opacity:1" fill="#3f0737" d="M 482.5,424.5 C 482.833,424.5 483.167,424.5 483.5,424.5C 481.802,429.572 479.802,434.572 477.5,439.5C 472.387,445.622 468.054,452.289 464.5,459.5C 458.756,465.425 453.923,472.092 450,479.5C 446.128,483.464 441.462,485.797 436,486.5C 433.516,486.503 431.349,485.837 429.5,484.5C 441.374,485.741 449.041,480.741 452.5,469.5C 453.842,466.834 455.675,464.501 458,462.5C 458.172,459.187 459.672,456.854 462.5,455.5C 466.967,448.588 471.467,441.588 476,434.5C 477,433.833 478,433.167 479,432.5C 479.533,429.495 480.7,426.828 482.5,424.5 Z"/></g>
<g><path style="opacity:0.984" fill="#240421" d="M 487.5,425.5 C 487.657,426.873 487.49,428.207 487,429.5C 481.974,436.91 476.974,444.243 472,451.5C 470.438,453.957 469.438,456.624 469,459.5C 461.456,468.395 454.622,477.895 448.5,488C 441.552,490.779 434.552,491.446 427.5,490C 425.937,489.241 424.937,488.074 424.5,486.5C 432.642,489.323 440.642,488.823 448.5,485C 453.904,476.491 459.238,467.991 464.5,459.5C 468.054,452.289 472.387,445.622 477.5,439.5C 480.445,434.555 483.779,429.888 487.5,425.5 Z"/></g>
<g><path style="opacity:1" fill="#2f062b" d="M 399.5,451.5 C 401.787,452.619 403.621,454.285 405,456.5C 405.651,460.801 407.985,463.801 412,465.5C 412.494,467.134 412.66,468.801 412.5,470.5C 413.675,470.281 414.675,470.614 415.5,471.5C 417.552,475.726 420.219,479.559 423.5,483C 425.345,484.128 427.345,484.628 429.5,484.5C 431.349,485.837 433.516,486.503 436,486.5C 441.462,485.797 446.128,483.464 450,479.5C 453.923,472.092 458.756,465.425 464.5,459.5C 459.238,467.991 453.904,476.491 448.5,485C 440.642,488.823 432.642,489.323 424.5,486.5C 422.563,485.41 420.73,484.076 419,482.5C 417.054,479.58 414.887,476.913 412.5,474.5C 412.649,473.448 412.483,472.448 412,471.5C 407.218,465.218 403.051,458.551 399.5,451.5 Z"/></g>
<g><path style="opacity:1" fill="#580a4a" d="M 411.5,459.5 C 415.221,463.254 418.221,467.587 420.5,472.5C 422.246,474.252 424.246,475.585 426.5,476.5C 429.72,480.056 433.72,481.723 438.5,481.5C 440.655,481.628 442.655,481.128 444.5,480C 446.618,476.053 449.285,472.553 452.5,469.5C 449.041,480.741 441.374,485.741 429.5,484.5C 426.614,483.121 424.114,481.121 422,478.5C 419.431,474.366 417.098,470.033 415,465.5C 412.09,464.55 410.923,462.55 411.5,459.5 Z"/></g>
</svg>
