<?xml version="1.0" encoding="UTF-8"?>
<!DOCTYPE svg PUBLIC "-//W3C//DTD SVG 1.1//EN" "http://www.w3.org/Graphics/SVG/1.1/DTD/svg11.dtd">
<svg xmlns="http://www.w3.org/2000/svg" version="1.1" width="752px" height="264px" style="shape-rendering:geometricPrecision; text-rendering:geometricPrecision; image-rendering:optimizeQuality; fill-rule:evenodd; clip-rule:evenodd" xmlns:xlink="http://www.w3.org/1999/xlink">
<g><path style="opacity:0.662" fill="#e14c57" d="M 416.5,-0.5 C 450.833,-0.5 485.167,-0.5 519.5,-0.5C 519.826,8.01676 519.493,16.3501 518.5,24.5C 518.5,16.5 518.5,8.5 518.5,0.5C 484.833,0.5 451.167,0.5 417.5,0.5C 417.5,8.5 417.5,16.5 417.5,24.5C 416.507,16.3501 416.174,8.01676 416.5,-0.5 Z"/></g>
<g><path style="opacity:1" fill="#fb5b69" d="M -0.5,91.5 C -0.5,66.5 -0.5,41.5 -0.5,16.5C 4.96467,11.5364 10.298,6.36972 15.5,1C 35.5,0.333333 55.5,0.333333 75.5,1C 80.6667,6.16667 85.8333,11.3333 91,16.5C 91.6667,40.5 91.6667,64.5 91,88.5C 88.876,91.9746 86.376,95.1412 83.5,98C 85.6325,101.3 88.2992,104.134 91.5,106.5C 92.4922,110.783 92.8256,115.116 92.5,119.5C 84.4931,119.666 76.4931,119.5 68.5,119C 64.5,115 60.5,111 56.5,107C 43.258,106.178 30.0914,106.345 17,107.5C 11.6018,101.598 5.76843,96.2645 -0.5,91.5 Z M 23.5,23.5 C 38.1667,23.5 52.8333,23.5 67.5,23.5C 67.6666,42.5029 67.4999,61.5029 67,80.5C 63.6507,77.318 60.484,73.9846 57.5,70.5C 51.5276,69.3364 45.5276,69.1697 39.5,70C 38.5333,74.4014 38.2,78.9014 38.5,83.5C 33.5,83.5 28.5,83.5 23.5,83.5C 23.5,63.5 23.5,43.5 23.5,23.5 Z"/></g>
<g><path style="opacity:1" fill="#fb5b69" d="M 102.5,0.5 C 110.167,0.5 117.833,0.5 125.5,0.5C 125.333,27.8354 125.5,55.1687 126,82.5C 140.421,83.4904 154.921,83.8237 169.5,83.5C 169.5,55.8333 169.5,28.1667 169.5,0.5C 177.5,0.5 185.5,0.5 193.5,0.5C 193.667,30.5019 193.5,60.5019 193,90.5C 187.302,96.5325 181.302,102.199 175,107.5C 155.907,106.673 136.74,106.173 117.5,106C 112.524,100.937 107.691,95.7705 103,90.5C 102.5,60.5019 102.333,30.5019 102.5,0.5 Z"/></g>
<g><path style="opacity:1" fill="#fb5b69" d="M 220.5,0.5 C 240.503,0.33338 260.503,0.500046 280.5,1C 284.967,6.46807 289.8,11.6347 295,16.5C 295.667,46.1667 295.667,75.8333 295,105.5C 287.587,106.481 280.087,106.814 272.5,106.5C 271.991,95.8219 271.658,85.1553 271.5,74.5C 256.833,74.5 242.167,74.5 227.5,74.5C 227.5,85.1667 227.5,95.8333 227.5,106.5C 219.833,106.5 212.167,106.5 204.5,106.5C 204.333,76.4981 204.5,46.4981 205,16.5C 210.37,11.298 215.536,5.96467 220.5,0.5 Z M 227.5,23.5 C 242.167,23.5 256.833,23.5 271.5,23.5C 271.5,32.8333 271.5,42.1667 271.5,51.5C 256.833,51.5 242.167,51.5 227.5,51.5C 227.5,42.1667 227.5,32.8333 227.5,23.5 Z"/></g>
<g><path style="opacity:1" fill="#fb5b69" d="M 306.5,0.5 C 314.174,0.333648 321.841,0.500315 329.5,1C 345.669,20.8767 362.169,40.3767 379,59.5C 379.5,59.3333 380,59.1667 380.5,59C 379.373,40.1827 379.206,21.0161 380,1.5C 387.747,0.518293 395.58,0.18496 403.5,0.5C 403.5,35.8333 403.5,71.1667 403.5,106.5C 396.159,106.666 388.826,106.5 381.5,106C 364.308,85.7759 347.475,65.2759 331,44.5C 330.5,65.164 330.333,85.8306 330.5,106.5C 322.5,106.5 314.5,106.5 306.5,106.5C 306.5,71.1667 306.5,35.8333 306.5,0.5 Z"/></g>
<g><path style="opacity:1" fill="#fa5b69" d="M 518.5,24.5 C 506.167,24.5 493.833,24.5 481.5,24.5C 481.667,51.8354 481.5,79.1687 481,106.5C 472.251,107.484 463.418,107.817 454.5,107.5C 454.5,79.8333 454.5,52.1667 454.5,24.5C 442.167,24.5 429.833,24.5 417.5,24.5C 417.5,16.5 417.5,8.5 417.5,0.5C 451.167,0.5 484.833,0.5 518.5,0.5C 518.5,8.5 518.5,16.5 518.5,24.5 Z"/></g>
<g><path style="opacity:1" fill="#fb5c69" d="M 532.5,0.5 C 540.42,0.18496 548.253,0.518293 556,1.5C 556.5,28.8313 556.667,56.1646 556.5,83.5C 571.5,83.5 586.5,83.5 601.5,83.5C 601.5,55.8333 601.5,28.1667 601.5,0.5C 609.634,0.374543 617.134,0.707876 624,1.5C 624.833,31.5056 624.667,61.5056 623.5,91.5C 618.5,95.8333 613.833,100.5 609.5,105.5C 589.175,106.666 568.842,106.833 548.5,106C 543.333,100.833 538.167,95.6667 533,90.5C 532.5,60.5019 532.333,30.5019 532.5,0.5 Z"/></g>
<g><path style="opacity:1" fill="#fb5b69" d="M 751.5,0.5 C 751.5,35.8333 751.5,71.1667 751.5,106.5C 743.5,106.5 735.5,106.5 727.5,106.5C 727.988,85.6819 727.488,65.0152 726,44.5C 715.702,56.4663 705.035,68.133 694,79.5C 682.965,68.133 672.298,56.4663 662,44.5C 661.827,64.4065 661.327,84.2398 660.5,104C 660.833,104.333 661.167,104.667 661.5,105C 653.337,106.467 645.004,106.967 636.5,106.5C 636.75,70.7063 637.083,35.5397 637.5,1C 644.833,0.333333 652.167,0.333333 659.5,1C 671.294,14.1135 682.961,27.2801 694.5,40.5C 706.537,27.7982 718.204,14.7982 729.5,1.5C 736.803,0.502739 744.137,0.169406 751.5,0.5 Z"/></g>
<g><path style="opacity:1" fill="#a457a9" d="M 108.5,263.5 C 82.8333,263.5 57.1667,263.5 31.5,263.5C 26.7886,257.404 21.6219,251.737 16,246.5C 15.3333,218.833 15.3333,191.167 16,163.5C 21.3484,158.319 26.515,152.985 31.5,147.5C 57.158,146.5 82.8247,146.167 108.5,146.5C 108.5,154.5 108.5,162.5 108.5,170.5C 85.5,170.5 62.5,170.5 39.5,170.5C 39.3334,193.502 39.5,216.502 40,239.5C 63.0917,240.494 86.2583,240.827 109.5,240.5C 109.089,248.184 108.756,255.851 108.5,263.5 Z"/></g>
<g><path style="opacity:1" fill="#a457a9" d="M 238.5,263.5 C 230.833,263.5 223.167,263.5 215.5,263.5C 215.5,247.833 215.5,232.167 215.5,216.5C 194.833,216.5 174.167,216.5 153.5,216.5C 153.5,232.167 153.5,247.833 153.5,263.5C 145.5,263.5 137.5,263.5 129.5,263.5C 129.5,224.5 129.5,185.5 129.5,146.5C 137.5,146.5 145.5,146.5 153.5,146.5C 153.017,162.322 153.517,177.989 155,193.5C 175.149,192.965 195.315,192.631 215.5,192.5C 215.5,177.167 215.5,161.833 215.5,146.5C 223.42,146.185 231.253,146.518 239,147.5C 239.827,186.238 239.66,224.905 238.5,263.5 Z"/></g>
<g><path style="opacity:1" fill="#a456a8" d="M 357.5,263.5 C 349.833,263.5 342.167,263.5 334.5,263.5C 333.52,250.579 333.186,237.579 333.5,224.5C 316.833,224.5 300.167,224.5 283.5,224.5C 283.5,237.5 283.5,250.5 283.5,263.5C 275.833,263.5 268.167,263.5 260.5,263.5C 260.516,230.904 260.183,198.237 259.5,165.5C 264.519,158.817 270.185,152.817 276.5,147.5C 298.159,146.334 319.826,146.167 341.5,147C 346.961,152.164 352.128,157.664 357,163.5C 357.5,196.832 357.667,230.165 357.5,263.5 Z M 283.5,170.5 C 300.167,170.5 316.833,170.5 333.5,170.5C 333.5,180.833 333.5,191.167 333.5,201.5C 316.833,201.5 300.167,201.5 283.5,201.5C 283.5,191.167 283.5,180.833 283.5,170.5 Z"/></g>
<g><path style="opacity:1" fill="#a457a9" d="M 438.5,263.5 C 431.167,263.5 423.833,263.5 416.5,263.5C 415.508,232.573 415.175,201.573 415.5,170.5C 402.167,170.5 388.833,170.5 375.5,170.5C 375.5,162.833 375.5,155.167 375.5,147.5C 410.57,146.287 445.237,146.287 479.5,147.5C 479.5,155.167 479.5,162.833 479.5,170.5C 466.167,170.5 452.833,170.5 439.5,170.5C 439.825,201.573 439.492,232.573 438.5,263.5 Z"/></g>
<g><path style="opacity:0.998" fill="#6086a6" d="M 629.5,263.5 C 621.833,263.5 614.167,263.5 606.5,263.5C 605.17,255.53 605.17,247.53 606.5,239.5C 592.85,238.501 579.183,238.167 565.5,238.5C 565.773,246.888 565.44,255.221 564.5,263.5C 556.5,263.5 548.5,263.5 540.5,263.5C 541.619,234.096 541.786,204.763 541,175.5C 548.747,174.518 556.58,174.185 564.5,174.5C 564.334,167.825 564.5,161.158 565,154.5C 567.5,152 570,149.5 572.5,147C 581.5,146.333 590.5,146.333 599.5,147C 601.342,149.543 603.509,151.71 606,153.5C 606.5,160.492 606.666,167.492 606.5,174.5C 614.42,174.185 622.253,174.518 630,175.5C 630.824,204.905 630.658,234.239 629.5,263.5 Z M 565.5,175.5 C 579.325,175.019 592.992,175.519 606.5,177C 605.682,188.845 605.349,201.178 605.5,214C 592.171,214.5 578.837,214.667 565.5,214.5C 565.5,201.5 565.5,188.5 565.5,175.5 Z"/></g>
<g><path style="opacity:1" fill="#6187a7" d="M 712.5,263.5 C 690.167,263.5 667.833,263.5 645.5,263.5C 645.5,255.5 645.5,247.5 645.5,239.5C 652.508,239.666 659.508,239.5 666.5,239C 666.957,238.586 667.291,238.086 667.5,237.5C 667.089,215.286 666.756,192.953 666.5,170.5C 659.5,170.5 652.5,170.5 645.5,170.5C 645.5,162.5 645.5,154.5 645.5,146.5C 667.833,146.5 690.167,146.5 712.5,146.5C 712.5,154.5 712.5,162.5 712.5,170.5C 705.5,170.5 698.5,170.5 691.5,170.5C 691.5,193.5 691.5,216.5 691.5,239.5C 698.5,239.5 705.5,239.5 712.5,239.5C 712.5,247.5 712.5,255.5 712.5,263.5 Z"/></g>
</svg>
